<mxfile host="app.diagrams.net" agent="Mozilla/5.0 (Windows NT 10.0; Win64; x64) AppleWebKit/537.36 (KHTML, like Gecko) Chrome/138.0.0.0 Safari/537.36" version="28.0.7">
  <diagram name="Page-1" id="7DSMkEoMC-NE01Yf9gfc">
    <mxGraphModel dx="733" dy="592" grid="1" gridSize="10" guides="1" tooltips="1" connect="1" arrows="1" fold="1" page="1" pageScale="1" pageWidth="512" pageHeight="197" math="0" shadow="0">
      <root>
        <mxCell id="0" />
        <mxCell id="1" parent="0" />
        <mxCell id="TfyVkknNWdpLB-4FukDw-1" value="" style="rounded=1;whiteSpace=wrap;html=1;fillColor=#E6E6E6;strokeColor=none;arcSize=9;opacity=50;" parent="1" vertex="1">
          <mxGeometry y="-197" width="512" height="197" as="geometry" />
        </mxCell>
        <mxCell id="GxkU5UI5qD7G4g8lQDoM-70" value="" style="rounded=1;whiteSpace=wrap;html=1;fillColor=#dae8fc;strokeColor=#6c8ebf;opacity=30;" parent="1" vertex="1">
          <mxGeometry x="198" y="-163" width="150" height="160" as="geometry" />
        </mxCell>
        <mxCell id="GxkU5UI5qD7G4g8lQDoM-32" value="" style="rounded=1;whiteSpace=wrap;html=1;fillColor=#d5e8d4;strokeColor=#82b366;opacity=30;" parent="1" vertex="1">
          <mxGeometry x="3" y="-163" width="175" height="160" as="geometry" />
        </mxCell>
        <mxCell id="GxkU5UI5qD7G4g8lQDoM-71" value="" style="rounded=1;whiteSpace=wrap;html=1;fillColor=#f8cecc;strokeColor=#b85450;opacity=30;" parent="1" vertex="1">
          <mxGeometry x="368" y="-163" width="140" height="160" as="geometry" />
        </mxCell>
        <mxCell id="AkpmsK5XjDnflj3CIGK0-43" value="" style="shape=image;verticalLabelPosition=bottom;labelBackgroundColor=default;verticalAlign=top;aspect=fixed;imageAspect=0;image=data:image/png,iVBORw0KGgoAAAANSUhEUgAAAgAAAAIACAYAAAD0eNT6AAAABHNCSVQICAgIfAhkiAAAAAlwSFlzAAAOxAAADsQBlSsOGwAAABl0RVh0U29mdHdhcmUAd3d3Lmlua3NjYXBlLm9yZ5vuPBoAACAASURBVHic7N13mBVF1sfx772TZ2DIUXIWwYwgCmIAwYgJFAUVd81hfc3gBvMqxjXnXcW8JlSiEUEwi+JKlCwKkien+/7RjEoYZqa7+nb6fZ7nPuvC9Okjg3NOV1VXxRCRoGgNdAI6bv10AtoAdYEMIBdIBep7lWAAlQObt34KgHxgDfAjMB9YuPWzbOvXiv9lAp3/8OkCtMf67yMXyAGysf47yd/6yQM2bf3nlcACtv3+b0zqv0GSxLxOQESq1AE4AjgY6A+09TadSCsAvgZmAO8CHwPFnmYkleoAffj9v5UDgDTD9/gRmIn1/Z8KLDUcX0QiLgUYCDwNrAMS+vj2kwe8DZyO9UQpydUKuAr4DCgj+d//BcA4YC+3/0VFJNwOAO4FVuN9YdOn9p8twLPAYKwmTtxRDzgbeA9rOsbr73vl5zvgWqzpOBGRasWAY7GGFL3+AaaPuc9S4DKsOWYxoxnwD6x5eK+/v7v6lANvYTX0IiI7SANGAXPx/geWPu591mAVrQaIXe2B+4BCvP9+1vYzA6vBFxEB4DhgMd7/cNIneZ8NwF+w3s6QmmkMPI43c/umPx8APcz+8YhIkHTEWjDm9Q8jfbz7zMNapS5Vi2ONjq3B+++XyU8p1khGrrk/KhHxuwzgZqAI738I6eP9pwJ4BmiKbG9/4HO8/x65+VkFnGrqD0xE/KsL8BXe/9DRx3+fX4AjEbAWw16GtaeC19+XZH1ewXqjQURC6GT8v2JZH28/FVjDwqY3rAmSxkR3amw+sLfzP0IR8Yts4Cm8/+GiT3A+HwItiZ7+WFvuev3n7+WnELjA6R+kiHivAdb2sF7/UNEneJ9VwJ5Ex0loXcwfP/djLYAUkQBqCczB+x8k+gT3sx5rH/uwuxh/7eLnl8+rWIcYiUiA7I51UpzXP0D0Cf4nHziacIphbYzk9Z+xnz/vkeRXBXUaoIh9vYDJQMNk3TAtLY399t+fPfbYg06dOtGpcxfat29PdnY2DerXJys7m9TUVLZs3syWvDwKCgpYsWI5CxcuZNGChcybN4/PPvuUvLy8ZKVMSkoKdz/4CEcfNzRp96z04vhnuP7qK2xdW7d+E0pLiigq2GI4q10qA84CnkvmTV0WAx4Czk/yfVcDs7AO7qk81nc11smOBVgLdSuPBq4LNMLas6Mz0BXYF6vBT6bPgEO35uc6NQAi9vTCOha0vts36tq1K8cPPYH+h/SnT58DyclxdvhcWVkZX37xBdOnf8TEiRP5dPZsEomEoWx3Li0tnSefe4G+B/d39T7bc9IAHDL0z4y8+gGWL5jDvC/e58uP3uDH7z8jUVFhOMsdlGM1AePdvlGS3IZ1WI7bioCJwBTgI6yV9k41Bw4BDsNau9DIQMzqPIu1IZLr1ACI1J7rxb9Jk6YMP/VURowYwT777uvWbQBYsmQJL77wPM8/9xyLFi1y7T45derw/KtvskfP5K13c9oAnHntw9v82oa1q5g1aTwfvfkka1f9aCLFqoSlCbgCuNPle3yEVTRfxXqqd0sa1omPpwNDsTb6ckMC6I21MZKrtPJQpHZcLf5t27blnvvuY/7ChYy7807Xiz9A+/btuW7MWOZ8N5cXXnzJtXvm5+VxzhmnsnzpUlfiJ0ODJrtx1Khr+Ocr8/jLXRPo2KO3W7dKAf4NnOHWDZLgTGCcS7ErsDbU2Q8YADyJu8UfrC1938Laza8DcBfgxlxaDKv5c50aAJGac634N2/egscef4K5//uB88+/gKysLNO3qFY8HmfoCSfwyazZTHj7bXr0MH+Gya9r13L2iGFs2bzZeOxkisXj7HnQUYx9YiZX3DeJ1p1dGdUIchPQC3gUd0aZ/4s1Nz8Ma7dNL/wEXAm0Bf6JtZOhSf0Mx9spNQAiNeNK8U9NTeWSSy9jznffMXLUKFJT/XFo3MCBg5j16WeMu/NOcnPNLkxetnQJY6/+P6MxvbRH74H8/T+fM/LqB8ipa/z03yA2AY2wns5ND5HPBwYBp2At7POD9cB1WPs4TDEYt7nBWFVSAyBSPVeKf/fu3flk9qfcMW6c8SJrQmpqKhdfcilzvvuOgQMHGY09ccKbvPTcs0ZjeikeT+HQE8/nphfm0LOP8W3+g9QExLHm49sajFkB3IpVZKcZjGvSAqz1ASOATQbiJWWITA2AyK65UvzPOvtsPp75CT179jQZ1hXNm7fgzbfe4qabbzY6QnHz38aycP48Y/H8oH7jlvzlnrcZccW9pKQa3eY/KE3AFcAQg/EqD04aC5QYjOuWF7DWJXzhMM5cA7lUSw2ASNWMF//09HSefOppHn7kUbKzs02FdV0sFuPKq65m6rR3adykiZGYhYWFXHbBuZSUBOHnes3FYjGOOOVirrp/KrkNjJ786/cmoDNwg8F4n2AdmPOuwZjJsBg4CGsNhF2vGspll9QAiOyc8eJft25dXn/zTUacfrqpkEl3YN++vP/Bh7Rr185IvAXzfuCpxx6u/gsDqMs+/bj+qU9o1rqzybB+bQJiwGOAqdWrbwMDgZ8NxUu2EqyNj/5u49p5WCMJrlMDILKjfbF2+DNW/Bs0bMjb70zksMMONxXSM507d+bD6dPZc6+9jMR78J67+GnVSiOx/KZxi3Zc9+iHtOli5s9qq8omICmbxdTQn7FexzPhWeBEkrQbnstuBM7G2uGxJgqxmruafr0jagBEttULa09uY9v7Nm3ajPc/+JADerv2znjSNWvWnEmTJtO1a1fHsQoLC7nz1psNZOVPuQ2bcdWD79Kum9H9FVKwjp72w0hAPaxFeiY8jbV/QKmheH7wb+A4qt+nYBXWNsBfup1QJTUAIr8zPuzftGkzpkybRrdu3UyF9I2GjRox4e13aNnS+XH2b73xGp9/OttAVv6UU7cBV9w/xY0m4N943wRcgZktcv+LNZLg7r7U3piEdb7AXcDy7X5vAdZUQXfg02QmpQZAxKLib0ObNm148623qVevnqM4iUSCcbfcaCgrfwppE9AU+IuBOJ9jTWmUG4jlV2v4ffOg5kAXoDFWY3AjSXr174/UAIio+DvSo0cPHnn0Mcdxvvri81CPAkAom4DrsE7Sc+Jn4ASs+e+o+AXrdMJ1XiahBkCizviCvyZNmjJpypRIFP9KQ084gXPPO89xnMcfut9ANv6WU7cBV94/lfbde5kMm4K1eC7ZZ9g7ffqvwHryX+UwjtigBkCizJUFf1PffZfu3bubChkYt98xzvHGRh+8O40F834wlJF/Zdetz//dN9H0SEAQ3YN/d/cLPTUAElUa9jcsMzOTBx96mHjc/o+VRCLBE488ZDAr/3JpOiBIfgT+6nUSUaYGQKJIxd8lvQ44gDNGjnQUY9Jbb1KQn28oI3+LeBNwDdGa9/cdNQASNZrzd9nNt9xCvXr2/3gLCwuZNmWSwYz8zaU1AUFQecCPeEQNgESJ5vyToEmTplx8ySWOYrzz5uuGsgmGiK4J6AzMBoZ5nUhUqQGQqNCTfxJddNFFZOfk2L5++ocfsHHDeoMZ+V9ERwKygOextsuVJFMDIFGgJ/8ka9CwIaeOsP9aellpKVMnTTSYUTBEdCQgBXgCOM3rRKJGDYCEnRb8eeRP519ALBazff2sGR8bzCY4IrowMA48CezndSJRogZAwkzF30Pt2rVj3/3tD2d/NnuWwWyCJaJNQBbwOtbhQpIEagAkrDTn77F4LMYxQ0+wff0vP69m+dKl5hIKmIiuCWgN3OZ1ElGhBkDCSHP+fhCLMeSY40lJSbEd4tPZnxhMKHgiuibgPKCP10lEgRoACRsN+/tFAho3aUL3Hva3B/7q888MJhRMv00H7B6Z6fE48A+vk4gCNQASJir+PpLYeqx7rz4H2o6xeOECU+kEWk7dBlzz0Pv0OTIyC+WPBPbxOomwUwMgYaHi7zMJq/5zgIMGYOmSHw1lE3wZWTmce8OzjHn8Y/odezaNW7YnNS3D67TcdLHXCYRdqtcJiBig4u9Dia0dwD772V/Etn7dOjZs3ECD+g1MpRV4nXoeSKee9psqNyQSCbZsWMPKxXP5bNrLfDLpWcpKS5yGHQqcD5Q6z1B2RiMAEnQ9UfH3pfKKCgAaNW5Mbq79N7t+mPu9qZTEJbFYjNyGzeje63DOGvMoNz0/h9adHW/z3xA41EB6UgU1ABJkucAEVPx9qaw88ds/t+vQwXacxYsWm0hHkqhZ686MeWw6bbs6nsbvZyIf2Tk1ABJkVwDtTAVT8TcnkUhQkaj47f+3bdfedqzNmzZRXFRsIi1JooysOlx8+39Jz8hyEiZS7z8mmxoACaoYMNpUMBV/s8oqKrb5/40aN7Ydq7CwkC15BU5TEg80at6WQ0+6wEmIvUzlIjtSAyBB1R5oZSKQir95JaXl2/z/nDp1bMcqKiwgP18NQFDtd4SjVxebmspDdqQGQIKquYkgKv7uKC3ftgFwcjRwYWEBZWXllJaWOU1LkiQBFJTAmi2Q2nRP4im2XzhLA+x3j7JLeg1QgirPaQAVf/eUlG3bAGRm2p8HLim25v8Li4pJS9OPrEQCisugrAIqEtV/fVIkoDwBFRVQUg5/HACKx1PIqtOA/E1r7Uavg4H/3mVH+q9JgmoxUARk2rlYxd89iYoEZds1AEVFhbbjpWdYm90UFRaRW9f+SEKQJRKQX2I9VReXgl/qfk1UVJRTmLfBSQgVf5doCkCCKh+YYudCFX93FZWW7VCg8vPs/wzPysoGrBGAKMorhp82wvp8KApY8Qf4+cc5VJTbnr4pRQ2Aa9QASJDdDFRU+1V/oOLvvsLSHTduK8jPtx0vc2sDUF5a9tvuglFQVg6rN1mFvzzA/9rfffCCk8t/MZWH7EgNgATZF8Bfa/rFKv7uSySguGTHp71f19qe/yU722oAEhCZhYDFZfDL5m3n0oNo4y9L+eKdR5yEmGMqF9mRGgAJtIKiono33Xwz8fiu/yr36NGDD6dPV/F3WVFpKRU7eUpftnSJ7Zh/fIWwrCz8DUBhqVX8g/zUD1BcuIUXbzqJ0hL76z+Ar03lIztSAyCBVVhcfEssFr/6yquuZvZnn3PSySdTZ7v3zffYYw/uvPtuZnwyi/bt7e9GJzWTX7TzA2CWLbHfADRvsdtv/1xSEu5zYQpL4dctXmfh3K8r5/PUFf34+UfHD/DTTeQjO6e3ACSQCouLb4HYmMr/37NnT8Y/9zylpaUsX76cgoICWrZo4WgHOqmdsooKincyRP/r2rVs3rzJdtyWu7X+7Z8rgv5YvAuFpbA2oMU/kUiQv/EXflnyHXOnv8y374+nvMxxs7YO+MBAelIFNQASONsX/z9KS0ujY8eOyU5JgPzCnT/9f/PVF7ZjNmjYcJtNhCoqarXmMzBqU/yXfz+Tr6Y8ydLvppO3fjVlpaF9O+INIPxzPh5SAyCBUlRcfHuC2NVe5yHbqqiooKB45w3Ap7M+sR13t1Zttr1PCN8CqOmwf0lRPhPuO5e5H73kflLeSwD3e51E2KkBkMAoLC6+RcXfn7YUllRZnD+fPct23FZt2m3z/xOJgC+L305Nn/wL8zbw7NjB/LTwS/eT8ocp6A0A16kBkEDY1bC/eKsiUUF+FU//v65dyw/fz7Ude4+e2x4Gl0jEbMfym5o++RfmbeDZMUfy06Kv3E/KHyqAv3udRBSoARDfU/H3t035xVVu0PPOhDcoL7f/1N5z7/22+f/Vve4ZFDV98i/K38j464dEqfgDPAR85nUSUaAGQHxNc/7+VlxWVuXcP8A7b75uO3bjJs1o0XK3bX4tHg/+CECRnvx3ZRkw1uskokINgHhhADAU6IZ10tdPwIfAS1iv/gCa8/e7RAI25VW9ycuKZcv4+kv7bwD03HufHX4t6A1AUal1RG51Ilr8C4ATgM1eJxIVagAkmdoD/wH67eT3TgFuA/4G3Kdhf//bUlhMaXnVr+U9/fgjjvbu33vfXjv8WpCnAFT8d6kCGI12/ksqNQCSLL2AicCudubJBe4dcNhhZ0Jsx8c/8Y3isjK2FBZV+fsb1q/nlReesx0/NS2Ng/oftsOvp6Sm2I7ppaLarPaPXvEvB87CGgGUJApuOy1B0guYyq6L/28+fP/9fR5++CF3MxLbyisSrN+y6/3dn336CQoL7e8Bv/8BB1I3N3eHX89IT7cd0yuVxb+6sZCIFv8CYDgw3utEokgNgLitsvjXr81FN95wAxs3bnQnI7EtkYD1eQW73JFv7Zo1PPWYoxPgGHD4kTv8WgxISwvWoKWK/y7NB/oAr3qdSFSpARA32Sr+ABs3bOCtCRPMZySObMgroKSaI3nH3XoTeVvsb2qfmZlFn4P77/DrqampxGLBWQSo4l+t64HvvE4iytQAiFtsF/9KM2Z8bC4bcWxTfhGF1ZzG9/WXn/P6K86mcvsfegRZWdk7/Hp6RpqjuMmk4l8jdwA7fqMladQAiBscF3+An1f/bCYbcWxLYRF5Rbs+dKaoqIixV13haOV/LBbj5NNG7vT3MjIzbMdNpsISa7W/in+12gM3eZ1ElKkBENP2BSbjsPgD1M2t6zwbcSyvqJjNBdWfOHfL369nwbwfHN2rz0H9adt+56c5ZmdnOYqdDPnFsDav+q+L6A5/O3M5cLTXSUSVGgAxqRfwHtDQRLDdd9/dRBhxIK+omE35Vb/uV2nSWxN44dn/OL7fyaeN2umvp6amkJHu3ymABLC5ENblV/+1hXkbeOa6QaxaYH+TpJ0oB0ZirZVM5udeh3nHgCeAVg7jiA1qAMQUI8P+lWKxGMcdP9REKLGppsV/3g//Y8xVlzu+3x4996LHnnvv9PeysjIdx3dLRYW1te/GGrz16NKwf+V79F68SncbYH/Fp6U58Drg/yEeM2JY/85dgSZeJqIGQEwwWvwBjjv+eHr27GkqnNRSXmHNiv+qlSsYPWI4WzY72701Fosx+vxLq/z9nGx/rhUrKIHVm6zDfarjYvE/E+/eo18D3GMgzv5Y/w7B3OmpZpoDdwMrgNXAPKw/v0XADUC9ZCekBkCcMl78W7duzf0PPGAqnNRSXlExmwqqL/4bN6xn9IjhrPnF+WLNQwcOrvLpPyUeJyvHXyMApeXWKv9f86C8BmseXS7+9rdcNOMu/nCGhwMnAo9jPSGHzVFYBf9yYLftfq8j1hboP2Dti5A0agDECWML/io1adKUNya8RZMmTU2FlFqo6bD/5s2bGH36qSxetNDxPbOysjlnF0//dXPrEPfJ+/+lZdY8f02f+gHyNv7Cf649wo3ifzbeF3+wDu+51lCss7HOC/Hvgo/aOxt4k+qf8FsA72ONhiSFGgCxy+iCP4BmzZoz9d136d69u6mQUgs1HfbftGkjo4adxLffmDm3ZcSZ59B4Fw1fbm4dI/exK5GwVvev2QKrN1v/XFMbfl7CU1cews8/zjGZUuWT/7Mmgzr0JPCBoVgjsdYE+HPep3b+ATxFzc/dycJq6pKy5aUaALHD+LB/s2bNmTx1Kt26dTMVUmqhpsP+mzZt5MzhJzP3WzMFrX2HTpw47PQqfz8rK9Oz7X9Ly62iv3Kj9dRfVMMn/kpLv5vOE5f3Zf1Pi0ym5Zdh/+0lgHMB+wdAbOtorAeMFobiJVsG1nTG321c2wUYYTadnQvWxtriByr+IVPTYX/TxT8jM5MxN9xGalrVo72xWIwNG+0vMCyoQVNTleKy2hd9gEQiwacT7mfak9dQXmYjQNX8WvwrLcKayx5nKF4f4BusEYGphmImQyeskw33dRDjROAZM+lUTQ2A1IaKf8h4VfwBLrzsKtq067DLrykoKKSgwP5DZX5+ge1r7dj860revPfPLP5qmunQfi/+le4GDsVa9GZCU2AS1rbB/wBqMQHjidOBh7CONnciKa9AaQpAakrFP2RqM+dvuvgPOPxIBh8Tnn0eKsrL+OytB3nogr2jXPwBKrCe2JcajBnHWmT4LbDjMZH+0BXr5+N4nBd/gKRsg6oRAKkJFf+Q8WrOH6BV67ZcdtVYY/G8tujLqUx76hp+WeLKwXZBKv6V1gMnAzMAk+9vdsF66+g1YAzWccJeawRcDfwFSDcYNykHoagBkOqo+IeMl8P+DRo24uY77yc7J8dYTC8kEhUs+PQdpr90K6vmf+7WbYJY/Ct9ibUo8D+Yf6//RGAo1psCt229V7LtBlwB/Blw4zWV6S7E3IEaANkVFf+Q8bL4Z+fkcPOd99Oi5fb7oATHprUrmPPes3w1+Uk2rlnm5q2CXPwrPYu11e1dLsSOAydt/UzHGnr/L7DBhXtVSgcGY83zH4+10t8NCeDfLsXehhoAqYqKf8h4WfxT09L42y130qlzV2Mxk6GivIzVi79hyTfv8cOsN6wDfBwcd1xDYSj+le4GGgPXuXiP/ls/92MtGJwKfIi1s55TLYEBwGHACRjc92QXngWMnhRVFTUAsjMq/iHjZfGPx+NcPfZG9tnvAGMxk2HeJ28w98MXKS50etZNrZRhFf/nk3lTl40FGgDnu3yfDKypgcrVpb8As7HWCiwEFmDNredv/WzEGr7P2fppCnTAWmvQBes1vmR3rJ8BFyTrZv7YX1P8ZF9gGgY73SZNmjJ56lTt8OeR2mzve9appxjb4U9qrQAYBrzjdSIuiGFtimNnY5yoeB9rlMHZyVq1EOaTl6T2VPxDRsU/MDZgvTv/nteJuOhDrEODBqOHz+29hrWeIT+ZN1UDIJVU/ENGxT8wfgKOIEnzvh77DJiLtYhOU9CW+4FzAKPbRtaENgIS0ME+oVObOX+TB/tIrX2AdfqbK5sI+NRrwEBgpdeJeKwIa13EpVgbKCWdGgBx5UjfiZMna8GfR2rz5H/2acOMLviTGksAt2MVwtUe5+KFGcDewNteJ+KR+cCBwKNeJqEpgGjTsH/IaNg/ENZgzfc+itUIRFUh8CLW+ofDiE49ehZrCmS514loBCC6NOwfMhr2970E1s54PQjW6XZuSgD3AX2x1geE2SpgODAKyPM4F0ANQFRp2D9kNOzve3OwNqs5C1jrbSq+9CXW8b9nEr4/nzLgX0B34GWPc9mGXsWIHm3yEzJebvIj1dqA9e77Q1g7/En1GgG3Yq2MD/q0wHtYi/z+53UiO6MGIFo05x8ymvP3rTXAw8C9WDvOSe21Ay7HOnAny9tUam0m1iLPt7xOZFfUAESHin/IqPj70lKsov8Y1iI3ca4pcCFwGQZHLl1QAUwEbgRcOyLSJDUA0aDiHzIq/r5SiPU627NYa2uSvqFLRGQBx2AtohuMfzYS+h/wCvAM8KPHudSKGoDw05x/yGjO3xe2YG3i8yLwJtY+/pI8LYFTgVOwNlJKdjMwD+v7/hwB3sRJDUC46ck/ZPTk75l8YBbW3O4MrDPoSzzNSCrlYG2qczBwENbbFumG7/Ejv3/vJ+ODd/hNUAMQXnryDxk9+buiDOtpfhO/HxO7FljM78fILsT6ge/Jdq1SaxlAR34/1rcz1oLCBkBdfj/+tz7W+/iV3/cNW/93JdseIbyQJJ7Ql0xqAMJJT/4h4/GTfzlwNtYct4iEhBqA8FHxDxkVfxFxgxqAcFHxDxkVfxFxixqA8FDxDxkVfxFxkxqAcFDxDxkVfxFxmxqA4FPxDxkVfxFJBjUAwabiHzIq/iKSLGoAgkvFP2RU/EUkmdQABJOKf8io+ItIsqkBCB4V/5BR8RcRL6gBCBYV/5BR8RcRr6gBCA4V/5BR8RcRL6kBCAYV/5BR8RcRr6kB8D8V/5BR8RcRP1AD4G8q/iGj4i8ifqEGwL9U/ENGxV9E/EQNgD+p+IeMir+I+I0aAP9R8Q8ZFX8R8SM1AP6i4h8yKv4i4ldqAPxDxT9kVPxFxM/UAPiDin/IqPiLiN+pAfCein/IqPiLSBCoAfCWin/IqPiLSFCoAfCOin/IqPiLSJCoAfCGin/IqPiLSNCoAUg+Ff+QUfEXkSBSA5BcKv4ho+IvIkGlBiB5VPxDRsVfRIJMDUByqPiHjIq/iASdGgD3qfiHjIq/iISBGgB3qfiHjIq/iISFGgD3qPiHjIq/iISJGgB3qPiHjIq/iISNGgDzVPxDRsVfRMJIDYBZKv4ho+IvImGlBsAcFf+QUfEXkTBTA2CGin/IqPiLSNipAXBOxT9kVPxFJArUADij4h8yKv4iEhVqAOxT8Q8ZFX8RiRI1APao+IeMir+IRI0agNpT8Q8ZFX8RiSI1ALWj4h8yKv4iElVqAGpOxT9kVPxFJMrUANSMin/IqPiLSNSpAaiein/IqPiLiKgBqI6Kf8io+IuIWNQAVE3FP2RU/EVEfqcGYOdU/ENGxV9EZFtqAHak4h8yKv4iIjtSA7AtFf+QUfEXEdk5NQC/U/EPGRV/EZGqqQGwqPiHjIq/iMiuqQFQ8Q8dFX8RkepFvQFQ8Q8ZFX8RkZqJcgOg4h8yKv4iIjUX1QZAxT9kVPxFRGonig2Ain/IqPiLiNRe3OsEkkzFP2RqU/zPPm2YG8V/NCr+IhJAURoBUPEPmdoW/zlff2Xy9pXF/xmTQUVEkiUqDYCKf8io+IuIOBOFBkDFP2RU/EVEnAt7A6DiHzIq/iIiZoS5AVDxDxkVfxERc8LaAKj4h4yKv4iIWWFsAFT8Q0bFX0TEvLA1ACr+IaPiLyLijjA1ACr+IaPiLyLinrA0ACr+IaPiLyLirjA0ACr+IaPiLyLivqA3ACr+IaPiLyKSHEFuAFT8Q0bFX0QkeYLaAKj4h4yKv4hIcgWxAVDxDxkVfxGR5AtaA6DiHzIq/iIi3ghSA6DiHzIq/iIi3glKA6DiHzIq/iIi3gpCA9ALmArUNxWwWbPmTJ46lW7dupkKKbVQ0+K/adNGzhx+MnO/nWPy9uXAWcB4k0FFRILG7w1Ad+Bj9OQfGnryFxHxBz83ALsBM4G2pgKq+HtLxV9ExD/iXidQhXrARFT8Q0PFX0TEX1K9TmAnGKvKzgAAIABJREFUsrGK/56mAmrO31ua8xcR8R8/jgA8APQ1FaxJk6ZMnDxZxd8jtXnyHz1iuBvFfzQq/iIiO/DbGoBhwEumgmnY31sa9hcR8S8/NQAdga+AXBPBVPy9peIvIuJvfpkCSAOeQ8U/FFT8RUT8zy+LAK8HepsIpAV/3tKCPxGRYPDDFEAH4Hsg02kgPfl7S0/+IiLB4YcRgHswUPwbN2nC1Hff1ZO/R/TkLyISLF6vARgIHOc0SHZ2Nv/976sq/h7Rq34iIsHj5RRAKtbQfxcnQdLT03n19dc54oiBZrKSWtGTv4hIMHk5AjAch8Uf4IEHH1Lx94iKv4hIcHnZAFzhNMDIUaMYOWqUiVykljTsLyISbF5NAQzB2u/fto4dOzLr08+oW7euoZSkprTaX0Qk+Lx6C+BKJxenpKQw/rnnVfw9oGF/EZFw8GIKoCdwmJMA5557Hnvvs4+hdKSmVPxFRMLDiymAfwLX2L24YaNGfPfdXBo2amQwJamOhv1FRMIl2VMAMeBUJwFuuOFGFf8k05O/iEj4JHsE4GDgY7sXt2zZkh/mLyA9Pd1gSrIrevIXEQmnZK8BOM3JxZdceqmKfxKp+IuIhFeyRwCWA63tXFivXj0WLFpMbq6RE4OlGhr2FxEJt2SOAHTAZvEHGH7qqSr+SaJNfkREwi+ZDcAhTi4eNmy4qTxkFzTsLyISDclsAPrbvbBVq1Yc2LevyVxkJ1T8RUSiI5mvAfaze+HQoScQj3t9cnG4ac5fRCRaklVV6wEd7V7cf8AAc5nIDjTnLyISPclqADrbvTAWi3GQhv9do2F/EZFoStYUgO0GYI899tDOfy7RsL+ISHT5fgSg5557msxDttKwv4hItPm+AejUqZPJPAQN+4uISPIagOZ2L+zUyXbvIDuh4i8iIpC8NQB17F7Yrl07g2lEm+b8RUSkUrJGAOravTC3Xj2TeUSW5vxFROSPktUA2B4BqFPH9qWylYb9RURke/5vAHJyTOYROSr+IiKyM8ncCtieWLJPLA4Pj+f8AYqBZaaDioiIc8kaAci3fWG+7UsjzeM5/0rZwETgMDeCi4iIfclqAPJsX5hn+9LI8njYf3vZwFuoCRAR8RX/NwBbtpjMI/RqM+w/athJbhf/StnABOCQZNxMRESq5/spgOXLl5vMI9R8MuxflRw0HSAi4hvJagB+tnvhwoULTOYRWj598t+eRgJERHwiWQ3AIrsXLl682GQeoeTzJ//taSRARMQHfN8AzJ0712QeoROQJ//taSRARMRjvm8Avp0zhy1aCLhTAXvy355GAkREPOT7BqCsrIzZs2eZzCUUfPaqn116RVBExCPJagDWAKvsXvzx9I8NphJ8Xg77x+NxGjRsaCwemg4QEfFEshoAANtV/M03XjeZR6B5Oewfj8e54rq/86/HnqV5i92MxUXTASIiSZfMBmC63QsXLFjAN19/bTKXQPJy2L+y+B8x+BiaNmvOuPsfM90EaDpARCSJAtEAALz00kum8ggkvxT/SmoCRESCLZlH7cWw1gI0tnNx8+YtmLdgARkZGWazCgAvT/WLx+NcOfYGDh901E5//+fVq7jq0vNY8/NqY/fE2jnyaOAjk0FFROR3KUm+X3dgbzsX5uXl0aZNW/bZZx/DKflbbef8v5vzjbF7//bkf+TRVX5Nnbq5HHzIYcye8ZHJcxvSgWHAbGCJqaAiIvK7ZI4AAAwCpti9uHPnznzz7XfE48mcufCO34b9q5KWlkqMMkYOO4GVZs9uKACOBd43GVRERJK7BgCsH+Rr7F68cOFC3ng9Gm8EeP2q35Vjb6hx8d9tt2a0btOG8S+/zm6tWhvLA70iKCLimmQ3AGXAK04CXHvN1RQUFBhKx5/88KpfVXP+f1RZ/FNSrJmkVm3a8MLrE2jVpo2xfNArgiIirkj2GgCAjcA5di/evHkz6elp9O8fzofC2i74Mz3nf+XYG3Y5519p++JfqW5uLkcMGsK0yZPYsnmzqdTSgJOBmcAyU0FFRKIs2WsAKn0O7G/34qysLL76Zg7t2rUzl5EP+Hm1/x9VVfz/aOXy5Zx+8lBWrVxhLEestwMGAZ+YDCoiEkVeraYb5+TiwsJCzjpzFGVlZaby8dzmgvAUf7CmA5777xum1wTkAK8BLU0GFRGJIi+mAADmASMA25vKr1q5krKyMg49LPhTwxvzC8krKq7267x61a9STYt/pdx69TjyqKOZNmUSmzdtcppqpTpAfazFgSIiYpNXUwAAFwIPOgkQj8d58623OOKIgYZSSq5EIsGGvEIKS0qr/dqgPPnvjAvTASVYG0rpnGgREZu8bACygIWAo71k69Wrx9R332PPPfc0k1WSlFckWJ9XQElp9dMYQS7+lVxoAo4CJpkKJiISNV7uqFMIXOM0yKZNmzj+2GNZtiw4i8OLS8tYszEvMsUfXFkTYHRxgYhI1Hi9pd7zwAynQX7+eTXHHn0UP5vdj964RAI25hfx6+Z8KhIV1X79xg3rQ1H8KxluAqpfMSkiIlXyugFIAJcC5U4DLVy4kEMPOYRFixY5z8oFxaVlrN20hfwaLPYDWLVyBcOPPyY0xb+SwSZgvol8RESiyusGAOBr4DETgZYuXcphAwbw1ZdfmghnRHlFgvVbCvh1cz6l5dU/9QPM/+EHhh13NIsXLTSWhx+KfyUDTcDPwBcGUxIRiRw/NAAA1wJGHt3Xrl3DoIFH8Nz48SbC2VaRqGBTQRG/bNxSo1X+lSa9NYFTTziGXwxOZ/ip+Fdy2AT8EwOjRiIiUeblWwDb2w9rh7d0UwFHnH469/3rfurUqWMqZLXKKirILywhv7iERCJR4+tKSkq4/aZ/8J8nHzeaTzwe58ox/+BwF97zN+GnVSsZcdLxNT5FMBaLvZ9IJI7EOldCRERs8ssIAMCXwBiTAZ9/7jkOOrAP06d/ZDLsDioSCQqKS1m3uYBfNmwhr6i4VsX/6y8/58QhA90p/mNv8G3xB2i5Wyuef/VNuvfoWe3XHnzIocz66ruViUQNVlCKiMgu+WkEAKx83gGGmA48bPhw/nn7HbRo0cJIvIpEBcUl5RSWlFJUWlargl9p3a+/Mu6WG3n15RdtXb8rfhz235WioiKeeepx/vPE4ztMf7Tv0JE/X3gxJw0/rTLHJzq2aHxeLBZTIyAiYpPfGgCARlinvnU1HbhO3bqcf/4FXHLpJTRt2qzG1yUqEpRWVFBWXkFJWRnFpWWU1XBB385s3LCe/zxpFbvNm41tkfuboBX/P0okEixaMJ+VK1YQj8dp36EjbXZ+6JOaABERB/zYAAC0w2oCXDn0JTMzk+EjzuCc886jU6fOxGIxYsSwnsETVFQkSCSsp/zSigoSFWaezlcsW8YzTz/Bi+OfobCgwEjM7QW5+NugJkBExCa/NgAAewEfAfVcvck++3LsCSdx9HFDadK0qfH469etY+KEN5jw+qt8/eUXxof6/yhixb+SmgARERv83AAADAAmAxlu3ygej9Olazd69z2IPgcdzF777EvTZs1rHWftmjV8N+drZs2cwaefzGTe/76nosL92hTR4l9JTYCISC35vQEAOA54BYOvB9ZUdk4O7Tt0pF37DtRv2JA6OXWom1uX1NQ0ysrL2LJpM/kF+WzasIElPy5m6ZIfyduS/APq0tLSufr6G+l/WPWnIoaw+FdSEyAiUgtBaADAeivgdZIwEhA0WVnZXH/zHex/wIHVfm2Ii38lNQEiIjUUlAYA1ATsoEHDhtw87n46delW7ddGoPhXUhMgIlIDQWoAwMPpAL9p1botN995Py1a7lbt10ao+FfavgmIAX2BQUBbrG2EFwKTAHOnLYmIBEjQGgCA44GXiXATcOjAwVx25ViysrOr/doIFv9KlU3AfsBDwP5VfN1U4CIMnUUhIhIUqV4nYMObwDAi2ARkZGZy0V+u5sijj6/R16enp9GyZdMoFn+AP11/4y2tgUOAzF183SDgU+AEYHoyEhMR8YMgjgBUitRIQPsOnRhzw220adehRl+fmZlBi+ZNiKf46biH5Pnh+7mccuwQioqKanpJPnA01t4TIiKhF+QGACKwMDAzM4uTTxvJqSPPJi2tZr1OdnYWzZo3Jh4L+rfXvjNOOYHZM2fU9rIC4FjgffMZiYj4SxgqRGibgN59+3Hx/11bqw2J6tWrS+NG9SHCxX/h/HkMObSf3cvVBIhIJARxDcD2JgHDCdF0QI899+ascy+i51771viaeDxO4yYNqFsnx8XMgmFW7Z/8/ygbmICmA0Qk5MLQAEAIFgbGYjF69+3HsNPPYo+ee9Xq2oyMdJo1b0xaali+nc78snp19V+0azlYx1KrCRCR0ApTxQhkE5CZmUW/Qw/n5FNH0a5Dx1pdG4/FqN8gl/oNcomFYjbHjPQMI99+NQEiEmphagAgIE1Aaloa+x9wIAOOOJIDDz6EzMysWsfIycmiUaOGpKVF8hW/XaptI7ULagJEJLTC+tjou1cEmzRtxp5778de++5P336HUjc311acjMwMGjWsR1bWrl5tj7YN69fTd5+elJaWmAqpVwRFJHTC2gCAh01Ao8ZNaLlba1q1acsePfem59770LxF9Vv27kpmZgYNGuSSnV370YIoumHsdTz79BMmQ6oJEJFQCXMDAC41AQOHHEPTZs3JzMwiKzuHtLQ06tWvT/MWu9Fyt9ZkZJp5Ok9JSaFOTjZ169UhIz3NSMyoyNuyhZOPHcKiBfNNhlUTICKhEfYGAFxoAtq068Ad9z1Kg4YNTYX8TTwlTk5OFnXrZJOZmUkswu/zO7VyxQpOP+l4Vq1cYTKsmgARCYWoVBfjmwW1adeeux98gtzcBiRI2I6TlppKRmY6WZkZZGZlkq4nfaN+WrWSEScdz8rly02G1WZBIhJ4UWkAwIUmoEPHToz/7+s0bNiY0tIySktLKa+ooKIiQUVFBRUVFSSAlHicWCxGLB4jNZ5CaloKaalppKWn6gk/CdQEiIjsKGrVx6Um4A2aNmtmKqS4QE2AiMi2otYAgJqAyFITICLyuyg2AKAmILLUBIiIWKLaAICagMhSEyAiEu0GANQERJaaABGJuqg3AKAmILLUBIhIlKkBsKgJiCg1ASISVWoAfqcmIKLUBIhIFKkB2JaagIhSEyAiUaMGYEdqAiJKTYCIRIkagJ1TExBRagJEJCrUAFRNTUBEqQkQkShQA7BragIiSk2AiISdGoDqqQmIKDUBIhJmagBqRk1ARKkJEJGwUgNQc8cDLwPppgJ26tKV8a+8TuMmTUyFFBesXL6c008eyqqVK0yGzQeOBj7aye/VA+Jb/7kM2GLyxiIioAagttQERJRLTUABsACr4NcHGuzia8uBzVjNwGrgV2AtsBz4EVi89X9/MpmgiISXGoDaUxMQUS41AaZtBL7Z+vka+AyY52lGIuJLagDsURMQUQFpAra3BpgBTAfeBb73Nh0R8QM1APapCYiob778gtNOPJ7S0hKvU7FrKfAO8DbWQsTA/ouIiH1qAJzR2wERsXnzJt6bMplJb09g+ocfUFZa6nVKpmwE3gJeASZhLToUkQhQA+CcRgJCqqKigpnTP+L5Z/7Nh++9G+Qn/ppaCTwFPL71n0UkxNQAmKEmIEQ2bdrIqy++wPPP/JulS370Oh0vlGFNDzwETPM4FxFxiRoAc9QEBNzqn1bx2IMP8MoL4ykqKvI6Hb/4Grgd+C/Wq4giEhJqAMxSExBAK5Yt45EH7uO1l1+KwjC/XT8CtwD/QY2ASCioATBPTUBArPnlF+654zZee+Ulysu09q2G5gF/BV4FEh7nIiIOqAFwh5oAHysqKuKpRx/mkQfuoyA/3+t0gupz4DJglteJiIg9agDcoybAh9564zXG3XITP63SIncDEsAzwLXAzx7nIiK1pAbAXWoCfGLVyhX89Zormf6BDuBzwWbgOuBhNC0gEhhqANynzYI8lEgkeOm5Z7ntxr+Tn5fndTphNxM4B5jvdSIiUj01AMmhkQAPrFy+nP+7+Hy++uJzr1OplfoNfj8UsLSkhPxgrVMowJoSeACNBoj4mhqA5FETkEST3prAmKsuZ8vmzV6n8ptmzZrTvXt3unbtSpu2bWjVqjWtWrWiUePGNGhQn/r1G5CWlrbTa0tLS9mwYT1r1/7KunW/smrlKpYuXcKSJUtYtGgR//v+ezZt2pTkf6NdehsYjXVksYj4kBqA5FIT4LKioiJu/ttYXhz/jKd5NGzUiD69+9DrgF70OuAA9t1nXxo0bOja/RKJBEuXLmXON9/w2WefMXPmDL768kvKvH298SdgJNaBQyLiM2oAkk9NgEtWLFvG+aNHMv+HH5J+75SUFPoceCCDBg3i8MOPYJ999yUejyc9jz/Kz89n5swZTHznHSZNnMjy5cu9SKMcuAa4y4ubi0jV1AB4Q02AYZ/N+oSL/nw2G9avT9o94/E4AwYcygknnshxxx9H06b+XpT57bff8vJLL/HySy+yYsWKZN/+eeDPWGsERMQH1AB4R02AIS899yz/GHNt0rbxbdeuHaPOPJMzRo6idevWSbmnSYlEghkff8yTTz7BG6+/TnFxcbJu/RVwDLA6WTcUkaqpAfCWmgAHEokEt97wN55+7JGk3O/QQw/jwosv5qijjvJ8eN+UX9eu5d//fpoHH3iQn39OSl1eChwFJH+eRkS2oQbAe2oCbCgvL+e6K/7Cay+/6Op94vE4Q084gWuvG0PPnj1dvZeXiouLeW78eO65+y4WLVrk9u3WY/29n+H2jUSkamoA/EFNQC2UlJRw+YXnMWXi267dIxaLccKJJzL2+r/SvXt31+7jN2VlZYx/9lluufkmVq50dbvkAmAoMM3Nm4hI1dQA+IeagBooLCjggtFnMmP6h67do3efPtxxxzgO6N3btXv4XVFREY88/BC33Xorm93bS6EIOAmY6NYNRKRqagD8RU3ALhQXF/PnkSP4ZMZ0V+I3bdqMO8aNY9jw4cRi+k8D4OefVzN2zBheeP55EglXNvYrAU4BJrgRXESqpp9y/nMU8Bo6O2AbZaWlXPins3l/2hTjsWOxGKeNGMG4cXfSsFEj4/HD4JOZMzn/vHNZuHChG+FLsJrfyW4EF5GdC8dS5nCZCAzH+qFoxI+LFzFq+En8ujaYu7KWl5fzf5dc4Erxb926NRMnT+bJp55W8d+FvgcdxKxPP+Oiiy52Y3QkHXgF6GM6sIhUTSMA/qXpgK3GXHk5Lz8/3njc00aM4J5776NevXrGY4fZtGlT+dPoc1iz5hfTodcD/YHvTQcWkR1pBMC/3gSGYXAkYNGC+ZxxygmBGgl47KH7jRf/rKwsHnv8CZ56+t8q/jYMHDiIz7/8gsMPP8J06IZYhwg1NR1YRHaU4nUCskvzsXZPOxlINRFw/bp1vD9tCkcefSw5deqYCOmaD96dxtgrLze6+Kx169a8OeEtBg8ZYixmFOXk1OG0ESOAGDM+/thk6PrAocBzQKnJwCKyLTUA/rcQ+A44EUPfrw0b1vPRB+8x+Ohjyc7JMRHSuO+/+5ZzRp5GSYm57X379e/PlKnT6NCxo7GYURaLxeh/yCF06dKVKVMmU1pqrF63BDoCr5oKKCI70hqA4IjMmoAN69dz3KDDWP3TKmMxTz/jDB56+BHS04398ckffDp7NieddCLrfv3VZNjLgXtNBhSR32kNQHBEYk1AIpHgqssuMlr8r77mWh5/4kkVfxf17tOHDz78iPbt25sMewdwkMmAIvI7NQDBEvom4NEH/8WH771rLN5NN9/MDTfeqI19kqBz586898GHdO3a1VTINKxRLy0KFHGBfioGUyinA7747FNOP3ko5WVljmPFYjHuvPtuLrzwIgOZSW2sWfMLRw0ezPffG3ub7y3gOFPBRMSiBiC4QtUE5OflcfTh/Vm5YoWReLffcQeXXvYXI7Gk9n5du5aBRxzOvHnzTIU8D3jMVDAR0RRAkIVqOuCOW240Vvz/ccMNKv4ea9ykCW9PnETbtm1Nhbwb6GwqmIhoBCAMAj8SMHvmDEYOO9HI+/4XXngRd91zj4GsxIRFixZx2IABrF27xkS4j4FDAFdOJRKJGjUA4RDYA4QKCws5+vD+LF+61HGsIUOO4pVXXyUlRdtb+MmXX3zBoIFHUFBQYCLcucDjJgKJRJ2mAMIhsAcIPXD3nUaK/9777MOzzz2n4u9D++2/Pw89/IipNzFuB5qbCCQSdfppGR7zMbxj4Pp16/jw/Xdd2zFw2dIlXHnphZSXlzuK06hxYyZPmUoTn21oJL/r0aMHBQWFzJr1idNQWUALrBEvEXFAIwDh8iZwAlBsKuCiBfMZceJxrPnF+Mlv3PL36x1v9RuPx3nq6adp06aNoazELTfedJOpA4RGAAebCCQSZWoAwicQ0wHTP3if96dNdRxnzNixDBp0pIGMxG0pKSk8+fRTNGvmeAQ/BoxDa5hEHNF/QOHl27cDKioqOOaIASyY94OjOL379OHd994nNdXIQYmSJJMnT+LEoUNNvPUxAnjBQEoikaQRgPDy7T4Bk96e4Lj4161bl6ee/reKfwANHjyEP597rolQN2LomGyRKFIDEG6+awLKy8v5113jHOdxw0030aFDB8dxxBu33vZPEwcHdQJGGkhHJJLUAISfrxYGvv3m6yxeuMDR/XsdcADnnnueoxjirZycHO67/34Tof6GwWkukSjRa4DRsBDDrwhu2LCejz54r1avCCYSCS674Fw2rF9n+75paWm8MeEtmrm8QZG4r2PHjixatJDv5851EqY+8CPwjZmsRKJDIwDR4fl0wPQP3nf89H/eeefTvXt3RzHEP26/4w7q1q3rNMwVaEGzSK2pAYgWT6cDnn78UUf3qt+gAdeNGeMohvhLs2bNufKqq5yG6QEMMpCOSKSoAYgeT/YJWLxoITOnf+joPtf/9a80bNTIUQzxn0suvczERk7/ZyIXkShRAxBNSZ8OeOapJxy9992qVSv+9Kc/275e/CsrK4ux1//VaZiBQFcD6YhEhhqA6EradEBxcTFvvfaqo9hXX3MtGRnGDjsUnzn9jDPo3LmzkxAxYLShdEQiQQ1AtCVlOuD9qVPYvHmT7Zi77bYbZ551loHsxK9SUlK4+pprnYY5E0gzkI5IJKgBENenA17/70uO4l140UWkp+tV77AbfuqptGrVykmIZsAxhtIRCT01AAIuTgfM++F/TP/wA9txsrOzOftsjexGQVpaGhdedJHTMCNM5CISBXp3Vv7I+AFCWVlZFBYW2r7+vPPP5977/mUqHfG5jRs30qlDe/Lz8+2GKACaArYDiESFRgDkj4yPBDgp/oCe/iOmfv36nDxsmJMQ2WgaQKRG1ADI9owvDLRrn333Za+99/Y6DUmys0c7bvpONpGHSNjpKE3ZmcqFgUanA2rrzDPP8urWSbN+3To+/vhjZsyYwbwffmDhwgVs2ryZTRs3EovFyK1Xj0YNG9KlS1d2796dg/sdzMEH9zOxfa5v9T6gN1277c58+0dGD8J6G6DUXFYi4aM1ALIrxtcE1FRKSgpLli2jSZOmyb6160pKSnj9tdd4bvx43n//PcrLy2t1fXp6OoOHDGHkqDM56qijiMfDN5B30y23cOuNNzgJMQD4yEw2IuGkBkCq40kTcMghA5g8dWoyb+m60tJSHn/8Me656y5WrlxpJGbXrl25+pprOW3ECGKx8Pzn/O338+i9755OQvwTuM5QOiKhFL5HBzHN+D4BNTH0xBOSeTvXfTx9Or177c8Vl19urPgDzJ8/n3NGn82hAw7h22+/NRbXax06tqfnXo7WfxxpKheRsFIDIDWR9CZg8OAhybqVq8rKyvjH3//O4CMH8cMPtue0q/Xp7Nn0P/ggHnroQdfukUypKXEGDj7KSYi9gHqG0hEJJTUAUlNJawI6d+5Mu3bt3L6N6/Ly8jhx6FBu/+dtVFRUuH6/4uJirrj8cv50zmhKS4O9/i01nkK/AYc6CREH+hhKRySU1ABIbSSlCRg4MPhHu2/cuJEhg49k2rTkr2N4bvx4hp18MsXFxrZzSLqUeIw9eu7p9PjnvqbyEQkjNQBSW643AQf36+dW6KQoLCzk5JNO5IvPP/csh8mTJ3H2WWcmZeTBDbFYjNTUFA7qd4iTMGoARHZBDYDY4WoT0LtPsEduzz/vXGbOmOF1Grz+2mv87a9/9ToN2+KxGPv1OsBJCO0iJbILagDELleagNatW9OyZUuTIZPqiccf5+WXnJ1+aNLdd93J5MmTvE7Dllgsxr7OGoDGQAtD6YiEjhoAccJ4E7DvfvuZCpV0K1eu5NprrvY6jW0kEgkuPP98Nm/e7HUqtRaPxei6e3eyc3KchOlpKh+RsFEDIE4ZbQJ69Ajuz+urrrzCySl2rlm9ejW33Hyz12nUWowYKSkpdO3W3UmYHqbyEQkbNQBigrFTBHv0CObP62/nzOHNN97wOo0qPfrIw/z0009ep1ErsVgCgC7dujkJ08lIMiIhpAZATDFyimBXZz/sPXP77f8kkUh4nUaViouLue/ee71Oo5asrY27dNvdSZD2RlIRCSE1AGLSm8AouxfHYjHatm1rMJ3kWLt2DW9NmOB1GtUaP/5ZSko8P+W55rYebdCxk6OH+HYGMhEJJTUAYtp3di9s3LgJ2dnZJnNJipdeesnIznsdO3XmbzffxrQZs/l+yUq+W7ycd96bzlVj/0rzFs7fjFi/bh1TJk92HCfZdmvdxsnlbdGhZyI7pQZATGts98LWbVqbzCNppkxyVlTj8ThXXDuWie9PZ9ToP9G+Q0cyMjLIysqi6+67c95Fl/LuzE8ZNfpPjnOdNGmi4xjJ1nK3Vk6OPM5CZwKI7JQaADGtid0LmzZpajKPpCgpKeGTT2Y6inHLnfdwwaV/ISU1tcqvyczM5G8338alV1wWsbXtAAAUY0lEQVTl6F4ffvCBo+u9kJGRQaPGtvtKcNCUioSZGgAxzfYP24aNGprMIynmzZtHQUGB7etPHn4ap5w6osZff8n/XUXfg/vbvt+SJUvYuGGD7eu90qChozMBHF0sElZqAMS0XLsXNmwQvAZg4YIFtq9NSU3l8muuq9U1sViMK8dcb/ueAAsc5OyV+g0aOLlcDYDITqgBENPS7V5Yp25dk3kkxYoVy21fe0CfA2nWvPY71e659z60bWf/7bYVK1bYvtYrDZw1h7abUpEwUwMgptluANLT00zmkRRbtuTZvrbnnvbPqum5l/1rg7gtcJazt0Ns/50UCTM1AGJaht0L09OD93O6sLDQ9rW59e0vTq/f0P4TcUGh/TULXsnIsP3XChz8nRQJMzUAYprtx/i0tOCNAGRlZdm+1slivA3r1tm+NjsreHstpKerARAxTQ2AiAO5ufbXLXz7zdf2r51j/9rc3OBNiaemVf2KZA0Er7MUSQI1ACIOtHawS92Xn33KT6tW1vq6r7/8nBXLltm+b5s2jnbW80Qs5mgzP+0EKLITagBEHOjcpYvta8vLy7nrn7fW6pqKigruuOUm2/cEZzmLSHioARBxoFu3btSpU8f29W+++grP/efpGn/9XbfdwuezZ9m+X8eOHalfv77t60UkPNQAiDiQlpZG374HOYrxjzHXcPftt1JaWvVJfQX5+Yy58nIeffBfju414NBDHV0vIuGhBkDEocFHDXF0fSKR4KH77mFQ/748/tADzP/hB/K2bGHjxg3M/XYO/7prHIf17cXLz493nOuQo452HENEwsHR0loRgeHDhnPt1VdTUlL1E3xNrFi2jNtvvoHbb77BUGbbatykCYMGDXIltogEj0YARBxq2KgRxw8d6nUa1Ro5clQg91oQEXeoARAx4Nrrxjg5s951mZmZXHrZpV6nISI+4t+fWCIB0r17d04+5RSv06jSRRdfQnMbBw+JSHipARAx5I5x46hXz/7+/m5p1aoV115Xu2OHRST81ACIGNKsWXPG3XmX12lsIx6P8+jjjzvaq0BEwkkNgIhBI0eNYuSoUV6n8ZtrrxvDYYcd7nUaIuJDagBEDHvgwYc44oiBXqfBsOHDGXv99V6nISI+pQZAxLD09HSee+EFDuzb17Mcjj32WB5/4klfv5kgIt7STwcRF+Tm5vL2OxM5+ujk77w3+pxzeOGll0lPT0/6vUUkONQAiLgkOzubV159jXF33ZWUDXgyMzMZd9ddPPjQw6SkpLh+PxEJNjUAIi6KxWJcfPElvPve++y5116u3eeQQwYw69PPuPjiS1y7h4iEixoAkSQ4oHdvPpk1m4cefoQOHToYi9uzZ0+ef+FFJk2ZQrdu3YzFFZHwUwMgkiQpKSmcPXo0c76by4svvcwxxxxja54+Ozub4aeeyoS33+bTz7/ghBNPJBaLuZCxiISZTgMUSbLU1FSOHzqU44cOJS8vjxkzPmbmjJnMn/cDCxcuZN269eTlbSEej1OnTl2aNGlMp86d6d59D/r170efPgeSmZnp9b+GiAScGgARD9WpU4fBg4cwePAQr1MRkYjRFICIiEgEqQEQERGJIDUAIiIiEaQGQEREJILUAIiIiESQGgAR8SXtbCDiLjUAIiIiEaQGQET8SbsbirhKDYCI+FI84XUGIuGmBkBE/EkjACKuUgMgIr6kA45E3KUGQER8Ka76L+IqNQBimu2/U3rik2384e9DSkqKk0hpjnMRCSE1AGJajt0LMzJ0xK38LuUPDUBGRoaTULb/ToqEmRoAMa2O3QuzsrJM5iEBF4//sQFw1Bza/jspEmZqAMS0unYvVAMgf5QS//3Hk8MRADUAIjuhBkBMs/3DNiNTUwDyuz+OAGQ6aw5tN6UiYaYGQEyz/cM2N1c/p+V38ViM+NZ1AI0aN3YSqpGRhERCRg2AmNbW7oUtWrQ0mYeEQGqqtfq/abNmTsJ0NpKMSMioARCTGgC2H9VatGhhMBUJg/St6wCaNmvuJEwbQPNLIttRAyAmdbF7YZ06dahbV1MAsq3KEYBmzZoTj9v+cRUHOprKSSQs1ACISbaHWlu21PC/7Ch9awOQmpZG4yZNnYSy3ZyKhJUaADHJ9g/ZTp00TSs7Sk2J/7ZDZOcuXZ2E2sNIQiIhogZATOpl98I9evQwmYeERCwWIyM1FYAu3bo5CdXfSEIiIaIGQExJBQ6ye3H37t0NpiJhkpFuNQCduzpqAA4C0k3kIxIWagDElP1xsAeAGgCpSnZGKjGgi7MGIBvr76iIbKUGQEwZYPfCjIwMujob3pUQi8fiZKSlsnuPnk63BD7EVE4iYaAGQEwZYPfC/fbf3+kPdgm57MwMMjIy2HOffZ2EGWQqH5EwUAMgJjTAQQPQr5/WZ8muZaWnkhqP06t3Hydh+gOtDKUkEnhqAMSEkwHbj/AHHWx77aBESJ2sDHr1PtBJiDhwqqF0RAJPDYCYcLrdC1NTU+nt7KlOIiI7M53eBx7odLroDFP5iASdGgBxqjXQz+7FBx/cj9zcXIPpSFjFgBZNGnJQ/wFOwuwFaNMJEdQAiHOn4+Dv0bHHH2cwFQm7zLQ0jjrmGKdhzjWRi0jQxbxOQAItDViEddparcViMRYsWkyrVlqXJTW39tdfad+2DeVlZXZDFADtgLXGkhIJII0AiBNnYrP4A+y7334q/lJrTRo3pm9fRwtHs4FLDaUjElhqAMSuFOBqJwGGDRtmKBWJmjPPPNNpiItwsHOlSBhoCkDsGg68aPfi9PR0Fv+4hMZNmhhMSaKioKCADu3bsWnjRidhrgHuMJORSPBoBEDsSAX+6iTAMcceq+IvtmVnZ3PqqY5f6R8DNDOQjkggqQEQOy7G4fnqZ48ebSgViaqzz3b8d6gecLuBVEQCSVMAUlvNgfmA7Zf3O3bsyJxv5xKP79h/JmIJKhIOsgMSTgMAFQlnMRIkcBiCRMJMDEfX4/z7QcKK40RFIsHOQpwy9Fg+mfGxk9AJ4GDgEydBRIIo1esEJHDG4aD4A4w+/yJ+3pRnKB2JsnMvusRpAxADHgB6AeVGkhIJCE0BSG0cgoNtfwGaNmvOCacMN5SORN3BhxxKjz33chpmH6wFgSKRogZAaqoh8AwOp43OOe8C0tPTzWQkApx/8WUmwtwA6FQqiRStAZCaiAFvAI727W3YqBEfzv6S7JwcM1mJABUVFZx41CDmfjvHaajlWKMB651nJeJ/GgGQmvgLDos/wGVXXqPiL8bF43HG/P1GE6HaYGCUSyQoUrxOQHyvF/A8Dv+udOzUmdvuunenK/9FnNqtdWv+N3cuPy5e5DRUF6AEcLSyUCQI1OnKrrQHZgItnAZ67D/jOWzgkc4zEmNKSko8WY9RVlpKfkG+oxiFBQWUlpRu82tLflzMOWec6vjVR6xXA88BnnYaSMTP1ABIVZoCM4DOTgPl1KnDGWeOpri4iKKiolpfX15WRl6+vdcGt2zabKsg5BfkU1ZaWv0XbqekpITCwoJaX1dRXkHeli21vg5gy5bNVFRU2Lo2PT2dNu3ac8SRQzjrT+e6tjvj57Nn8eL4Z5g1cwZr1/xioki7rQwYCrzjdSIiblEDIDtTB/jg/9u78xiryjOO498ZYO7cueMM4jDDLDA7zIzbIIuxLe6ABUmrsW3ahhptampDWrE0ptWobW2aihvaJl2iTRpTDWXfWhYH1FiBDgMuIIuA4gIF6oIwwzDM3P5xJDFEB+45z7nvXX6f5PzBH+e5Dze59/nN+557DjDWdSOSPAWxGL/+3UN87cabzGp2dXVx96yZLFk436xmEnUC1wDrXTciEgZdAyCni+Bd8T/BdSOSXD09PaxasZyyYeUWv62np+cEt3znW7StXmXQnRODgBuB1cABx72ImNMVWfJZEWA+MMl1I+LOfb+4i107tgeuM2f2g2x8Oe3vsDsELwC0um5ExJoCgJxyavhPdd2IuHWyp4c5Dwd7Su7hQ4f461/+aNSRc+fhhYDgyyIiKUQBQEDDX06zdvUqOo/5v1J/zcp/0t3dbdiRcyV4IeBC142IWFEAkDxgLhr+8hnd3d3s2rnD9/lbX3vVsJuUMRR4DoUAyRB6GmB201/+8oV2vXeUIfX5vs7df9jfTxrTwFBgDXA1sNVxLyKBKABkLw1/6VfnoCr2fhT1dW5uQZlxNymlFG8l4Gpgm+NeRHzTFkB20rK/9CsSjVFZf77v82tbMv4WEmV498rw/yaJOKYAkH0iwAIMHu4jmWvMlTcwKM/f8j9A64Rp5BecY9hRSirFuzBwlOtGRPzQjYCyi5b95Ywi0Ri3P/AMsaJzfdfIi0SJx+O80b7WsLOUdA7ezYKWAf9z3ItIQrQCkD00/OWMcnMHcOs9TzK0si5wranfu4vWCdMMukp5FXjbAYGfmyGSTFoByA4a/nJGxSXl/Og3zzL6cpuhnZOTw7hrbqLr2BHeeqM9HR4AFMSplYAlwAeOexE5K3oYUObT8JfPlReJEisaQnlNE60TrmfCtFuJRGOhvNZ7e7bx4tKneKO9jY8O7aev92SgegPzIuTlFwTu68gH/6W7K9ijiU/zLnAlsNuyqEgYFAAyWyjD/4qv/4ChlbUJnxc7x9+eciQaY8DAxJ9bP2DgIPILCn29ZkHhYMhJ/OMRyY8ycFAk4fNyBwwkP+bvormCWDE5udrN8+OdXa8ye8ZEjn5sun3/Dl4I2GNZVMSaAkDmygP+gfHV/jfcdj/Tbr3HsqSIUwoBkq30Z0Nm0vAXOUvDGy9i1hOrKCw+z7Qs3oWBwa+mFAmJVgAyj4a/iA/7dr7C7BkTOXbE9Bq+fXgrAXsti4pY0ApAZtHwF/FpxMiL+dnvVxErGmJaFlgHJH7RjEjIFAAyh4a/SEAjRrYy64mVYYSAtUCNZVGRoLQFkBk0/EUMvb1jMw/NmMSxTz40LYu3HfCWZVERv7QCkP40/EWMVY8azR2PLiMaKzIti/fsgErLoiJ+KQCkNw1/kZDUX3Apdz62wjoENOBtBygEiHPaAkhfGv4iSfDmay/zyE+mcLzzE8uyu/C2A963LCqSCK0ApCcNf5EkabjwMu6cs8L68caNeCsBFZZFRRKhAJB+NPxFkqzhwsuY+dhy6xAwEmgDyi2LipwtBYD0ouEv4kjjRV9i5qPLiET9PV/iC4zCWwlQCJCk0zUA6UPDXyQF7HrlJR65YyrdXUcty24HrgIOWBYV6Y9WANKDhr9Iimi8+MthrAQ04a0EDLMsKtIfBYDUp+EvkmJGtn6FmY8sJRKNWZZtAlYCJZZFRb7IANcNSL80/EVS1Hnl1dS2jGNT23x6e09alS0DrgPmAZ1WRUU+jwJA6tLwF0lxpZV11LaMo71tPn22IWAy3ue/y6qoyOkUAFKThr9ImiitqqfOPgQMAybhrQQoBEgoFABSj4a/SJopraqntnmsQoCkFQWA1KLhL5KmSqvqqWkew6a2BdYhYCLaDpAQKACkDg1/kTRXVtVATdMl3kpAX69V2XK8lQCFADGlAJAaNPxFMkTZ8AZqmseEEQJOrQQctyoq2U0BwD0Nf5EMUza8geqmS2hvW2AdAq5FIUCMKAC4peEvkqHKhjdSUddCx7pFxPv6rMpWAJfjfW90WxWV7KQA4I6Gv0iGq6hpprLufOsQMBy4Au/744RVUck+CgBuaPiLZImKmmYqa1vYtG4h8bhCgKQOBYDk0/AXyTIVtc1U1Dazad0i6xBwajtAIUASpgCQXBr+IlmqoraF8pomOp43DQEjgAkoBIgPCgDJo+EvkuUq61oorxlFx/OLrUOAVgIkYTmuG8gSoQz/626+98TkW+7tzYGoZV0RCVNOV8eaZ3Of/u3NEcM7BgK8CEwBjloWlcylABC+UIb/VdPv54pv6y9/kXT1+gtzWfDgdMv7BAC8gBcCjlkWlcykLYBwafiLyOcqrT6f4tJqdqxfCsStylYD4/AeIGS6vCCZRwEgPBr+ItKvYXUXM7h0BDs2LMMwBNQD41EIkDNQAAiHhr+InJVh9a0Ulw5np30I0EqA9EsBwJ6Gv4gkpLy+leKhVezcsByFAEkWBQBbGv4i4kt5/WiKSirZudE0BDQAY4H5KATIaRQA7Gj4i0gg5Q2jKSqpYOfGFYQQAuYBpj85kPSmnwHaiOAl7KmuG+lPfqyYIeX1NI6fyvjrbyc2uDSU1zn49lbal/+JPVue4+OD++g50RXK64hIQpYA30A3C5JPKQAElxbD/3R50UKm/HAOrRNvNqvZ13uS1U/9nA2LH7f+bbOI2FgEfBPocd2IuKctgGBygbkYL/snQ+/JE2xfv4T8wsFUNV0auF48HmfBg9PpWPkk8bjZ0qWI2GoCGoEFrhsR9xQAgvkp8GPXTQSxZ/MaGsZcR1FJZaA6G5f+gX/Pf9ioKxEJ0QXAQeA/rhsRt3JdN5DGCoG7XTcRVF9fL8/9LdhFhj3dnTz/9weMOhKRJLgPyHfdhLilAODfVGCw6yYs7N2ylqMfHvB9/u6O1XQeOWzYkYiErBS41nUT4pYCgH9jXTdgJR7vY//uLb7P3//mZsNuRCRJxrluQNwa6LqBNHau6wYs7dv20rLGsZO3+jn33R0bJgGjjVsSkXBl1HeYSDLNxrtTR6YcXw3wXvwqBfrXoUNHYscvkaymLQD/MukK2j6gI8D57VaNiEjS6HOb5XQjIP8KgX1kxjLaamBSgPOjeO9FiU07IhKyg0A1cNx1I+KO7gPg3wm8u2lNdt1IQCeB7wLvB6zRBUwx6UhEwjYLWO+6CZF0lot3G2DXe3lBDqsbGeUAz6TA/0eHDh39H0+j1V9BKwBBxYGFQBEwnvT6UB0BbgP+bFhzEVAAXIquLxFJNb3AQ3ihv89xL5ICFACC6wP+BSz+9N9FQIzU/InlR8DreEN/OvCycf043vUE8/Del2K8QDDI+HVE5OwcB94EngW+j7dKp+EvAPwftP1dfo45bMQAAAAASUVORK5CYII=;" parent="1" vertex="1">
          <mxGeometry x="278" y="-131" width="60" height="60" as="geometry" />
        </mxCell>
        <mxCell id="nBPd2E6_pD8OVz0HcGxl-23" value="" style="group;strokeColor=none;" parent="1" vertex="1" connectable="0">
          <mxGeometry x="96" y="-42.419999999999995" width="71" height="40" as="geometry" />
        </mxCell>
        <mxCell id="nBPd2E6_pD8OVz0HcGxl-2" value="" style="shape=cube;whiteSpace=wrap;html=1;boundedLbl=1;backgroundOutline=1;darkOpacity=0.05;darkOpacity2=0.1;size=20;fillColor=light-dark(#cccccc, #383864);fontColor=#333333;strokeColor=none;gradientColor=none;shadow=1;" parent="nBPd2E6_pD8OVz0HcGxl-23" vertex="1">
          <mxGeometry x="1" y="2.500000000000007" width="70" height="30" as="geometry" />
        </mxCell>
        <mxCell id="nBPd2E6_pD8OVz0HcGxl-3" value="" style="shape=cylinder3;whiteSpace=wrap;html=1;boundedLbl=1;backgroundOutline=1;size=2.9;fillColor=default;fontColor=#333333;strokeColor=#000000;gradientColor=#CCCCCC;strokeWidth=0.05;" parent="nBPd2E6_pD8OVz0HcGxl-23" vertex="1">
          <mxGeometry x="5" width="10" height="10" as="geometry" />
        </mxCell>
        <mxCell id="nBPd2E6_pD8OVz0HcGxl-4" value="" style="shape=cylinder3;whiteSpace=wrap;html=1;boundedLbl=1;backgroundOutline=1;size=2.9;fillColor=default;fontColor=#333333;strokeColor=#000000;gradientColor=#CCCCCC;strokeWidth=0.05;" parent="nBPd2E6_pD8OVz0HcGxl-23" vertex="1">
          <mxGeometry x="17" width="10" height="10" as="geometry" />
        </mxCell>
        <mxCell id="nBPd2E6_pD8OVz0HcGxl-6" value="" style="shape=cylinder3;whiteSpace=wrap;html=1;boundedLbl=1;backgroundOutline=1;size=2.9;fillColor=#FFFFFF;fontColor=#333333;strokeColor=#000000;gradientColor=#FF8000;strokeWidth=0.05;" parent="nBPd2E6_pD8OVz0HcGxl-23" vertex="1">
          <mxGeometry x="12" y="6" width="10" height="10" as="geometry" />
        </mxCell>
        <mxCell id="nBPd2E6_pD8OVz0HcGxl-14" value="" style="shape=cylinder3;whiteSpace=wrap;html=1;boundedLbl=1;backgroundOutline=1;size=2.9;fillColor=default;fontColor=#333333;strokeColor=#000000;gradientColor=#CCCCCC;strokeWidth=0.05;" parent="nBPd2E6_pD8OVz0HcGxl-23" vertex="1">
          <mxGeometry x="29" width="10" height="10" as="geometry" />
        </mxCell>
        <mxCell id="nBPd2E6_pD8OVz0HcGxl-15" value="" style="shape=cylinder3;whiteSpace=wrap;html=1;boundedLbl=1;backgroundOutline=1;size=2.9;fillColor=default;fontColor=#333333;strokeColor=#000000;gradientColor=#CCCCCC;strokeWidth=0.05;" parent="nBPd2E6_pD8OVz0HcGxl-23" vertex="1">
          <mxGeometry x="41" width="10" height="10" as="geometry" />
        </mxCell>
        <mxCell id="nBPd2E6_pD8OVz0HcGxl-16" value="" style="shape=cylinder3;whiteSpace=wrap;html=1;boundedLbl=1;backgroundOutline=1;size=2.9;fillColor=default;fontColor=#333333;strokeColor=#000000;gradientColor=#CCCCCC;strokeWidth=0.05;" parent="nBPd2E6_pD8OVz0HcGxl-23" vertex="1">
          <mxGeometry x="48" y="6" width="10" height="10" as="geometry" />
        </mxCell>
        <mxCell id="nBPd2E6_pD8OVz0HcGxl-17" value="" style="shape=cylinder3;whiteSpace=wrap;html=1;boundedLbl=1;backgroundOutline=1;size=2.9;fillColor=default;fontColor=#333333;strokeColor=#000000;gradientColor=#CCCCCC;strokeWidth=0.05;" parent="nBPd2E6_pD8OVz0HcGxl-23" vertex="1">
          <mxGeometry x="36" y="6" width="10" height="10" as="geometry" />
        </mxCell>
        <mxCell id="nBPd2E6_pD8OVz0HcGxl-5" value="" style="shape=cylinder3;whiteSpace=wrap;html=1;boundedLbl=1;backgroundOutline=1;size=2.9;fillColor=default;fontColor=#333333;strokeColor=#000000;gradientColor=#CCCCCC;strokeWidth=0.05;" parent="nBPd2E6_pD8OVz0HcGxl-23" vertex="1">
          <mxGeometry x="24" y="6" width="10" height="10" as="geometry" />
        </mxCell>
        <mxCell id="nBPd2E6_pD8OVz0HcGxl-18" value="" style="shape=cylinder3;whiteSpace=wrap;html=1;boundedLbl=1;backgroundOutline=1;size=2.9;fillColor=#FFFFFF;fontColor=#333333;strokeColor=#000000;gradientColor=#FFE6CC;strokeWidth=0.05;" parent="nBPd2E6_pD8OVz0HcGxl-23" vertex="1">
          <mxGeometry x="19" y="12" width="10" height="10" as="geometry" />
        </mxCell>
        <mxCell id="nBPd2E6_pD8OVz0HcGxl-19" value="" style="shape=cylinder3;whiteSpace=wrap;html=1;boundedLbl=1;backgroundOutline=1;size=2.9;fillColor=#FFFFFF;fontColor=#333333;strokeColor=#000000;gradientColor=#FF9933;strokeWidth=0.05;" parent="nBPd2E6_pD8OVz0HcGxl-23" vertex="1">
          <mxGeometry x="55" y="12" width="10" height="10" as="geometry" />
        </mxCell>
        <mxCell id="nBPd2E6_pD8OVz0HcGxl-20" value="" style="shape=cylinder3;whiteSpace=wrap;html=1;boundedLbl=1;backgroundOutline=1;size=2.9;fillColor=#FFFFFF;fontColor=#333333;strokeColor=#000000;gradientColor=#FFB366;strokeWidth=0.05;" parent="nBPd2E6_pD8OVz0HcGxl-23" vertex="1">
          <mxGeometry x="43" y="12" width="10" height="10" as="geometry" />
        </mxCell>
        <mxCell id="nBPd2E6_pD8OVz0HcGxl-21" value="" style="shape=cylinder3;whiteSpace=wrap;html=1;boundedLbl=1;backgroundOutline=1;size=2.9;fillColor=#FFFFFF;fontColor=#333333;strokeColor=#000000;gradientColor=#FFCC99;strokeWidth=0.05;" parent="nBPd2E6_pD8OVz0HcGxl-23" vertex="1">
          <mxGeometry x="31" y="12" width="10" height="10" as="geometry" />
        </mxCell>
        <mxCell id="nBPd2E6_pD8OVz0HcGxl-24" value="" style="shape=cube;whiteSpace=wrap;html=1;boundedLbl=1;backgroundOutline=1;darkOpacity=0.05;darkOpacity2=0.1;size=18;gradientColor=none;strokeColor=none;fillColor=#CCCCCC;shadow=1;" parent="1" vertex="1">
          <mxGeometry x="209.57" y="-98.55000000000001" width="62.78" height="21" as="geometry" />
        </mxCell>
        <mxCell id="nBPd2E6_pD8OVz0HcGxl-25" value="" style="shape=cube;whiteSpace=wrap;html=1;boundedLbl=1;backgroundOutline=1;darkOpacity=0.05;darkOpacity2=0.1;size=10;strokeColor=none;fillColor=#FFB366;" parent="1" vertex="1">
          <mxGeometry x="219.57" y="-96.05000000000001" width="42.78" height="11" as="geometry" />
        </mxCell>
        <mxCell id="nBPd2E6_pD8OVz0HcGxl-26" value="" style="shape=cube;whiteSpace=wrap;html=1;boundedLbl=1;backgroundOutline=1;darkOpacity=0.05;darkOpacity2=0.1;size=14;fillColor=#999999;strokeColor=none;fillStyle=auto;shadow=0;" parent="1" vertex="1">
          <mxGeometry x="238.62" y="-105.54999999999998" width="21.73" height="22" as="geometry" />
        </mxCell>
        <mxCell id="nBPd2E6_pD8OVz0HcGxl-27" value="" style="shape=flexArrow;endArrow=classic;html=1;rounded=0;width=2.857142857142857;endSize=2.5228571428571427;endWidth=4.326530612244897;fillColor=default;strokeColor=none;gradientColor=light-dark(#9ec8fc, #ff9090);gradientDirection=east;" parent="1" edge="1">
          <mxGeometry width="50" height="50" relative="1" as="geometry">
            <mxPoint x="231.62" y="-110.17999999999998" as="sourcePoint" />
            <mxPoint x="260.62" y="-110.17999999999998" as="targetPoint" />
          </mxGeometry>
        </mxCell>
        <mxCell id="GxkU5UI5qD7G4g8lQDoM-29" value="Stock Solutions" style="text;html=1;align=center;verticalAlign=middle;resizable=0;points=[];autosize=1;strokeColor=none;fillColor=none;fontFamily=Verdana;fontSize=11;" parent="1" vertex="1">
          <mxGeometry x="-8.881784197001252e-16" y="-135.55" width="110" height="30" as="geometry" />
        </mxCell>
        <mxCell id="GxkU5UI5qD7G4g8lQDoM-30" value="Solution Mixing" style="text;html=1;align=center;verticalAlign=middle;resizable=0;points=[];autosize=1;strokeColor=none;fillColor=none;fontFamily=Verdana;fontSize=11;" parent="1" vertex="1">
          <mxGeometry x="75.5" y="-105.55" width="110" height="30" as="geometry" />
        </mxCell>
        <mxCell id="GxkU5UI5qD7G4g8lQDoM-31" value="Blade Coating" style="text;html=1;align=center;verticalAlign=middle;resizable=0;points=[];autosize=1;strokeColor=none;fillColor=none;fontFamily=Verdana;fontSize=11;" parent="1" vertex="1">
          <mxGeometry x="190.96" y="-139" width="100" height="30" as="geometry" />
        </mxCell>
        <mxCell id="GxkU5UI5qD7G4g8lQDoM-33" value="Liquid Handling" style="text;html=1;align=center;verticalAlign=middle;whiteSpace=wrap;rounded=0;fontStyle=1;fontSize=13;fontFamily=Verdana;" parent="1" vertex="1">
          <mxGeometry x="28" y="-163" width="125" height="30" as="geometry" />
        </mxCell>
        <mxCell id="GxkU5UI5qD7G4g8lQDoM-36" value="" style="group" parent="1" vertex="1" connectable="0">
          <mxGeometry x="120.91" y="-84" width="8.62" height="37.68" as="geometry" />
        </mxCell>
        <mxCell id="GxkU5UI5qD7G4g8lQDoM-15" value="" style="shape=cylinder3;whiteSpace=wrap;html=1;boundedLbl=1;backgroundOutline=1;size=1.3489932885905773;strokeWidth=0.05;" parent="GxkU5UI5qD7G4g8lQDoM-36" vertex="1">
          <mxGeometry x="0.510000000000019" y="6.945394045534167" width="7.599999999999994" height="24.746059544658507" as="geometry" />
        </mxCell>
        <mxCell id="GxkU5UI5qD7G4g8lQDoM-16" value="" style="verticalLabelPosition=bottom;verticalAlign=top;html=1;shape=mxgraph.basic.cone;rotation=-180;fillColor=#FFB366;strokeWidth=0.05;" parent="GxkU5UI5qD7G4g8lQDoM-36" vertex="1">
          <mxGeometry x="0.510000000000019" y="30.041716287215415" width="7.599999999999994" height="7.638283712784592" as="geometry" />
        </mxCell>
        <mxCell id="GxkU5UI5qD7G4g8lQDoM-18" value="" style="shape=cylinder3;whiteSpace=wrap;html=1;boundedLbl=1;backgroundOutline=1;size=1.8400000000000176;fillColor=#FFB366;strokeWidth=0.05;" parent="GxkU5UI5qD7G4g8lQDoM-36" vertex="1">
          <mxGeometry x="0.5099999999999906" y="15.754991243432578" width="7.599999999999994" height="15.936462346760079" as="geometry" />
        </mxCell>
        <mxCell id="GxkU5UI5qD7G4g8lQDoM-20" value="" style="ellipse;whiteSpace=wrap;html=1;fillColor=#666666;strokeColor=none;" parent="GxkU5UI5qD7G4g8lQDoM-36" vertex="1">
          <mxGeometry y="5.774080560420318" width="8.619999999999994" height="4.429544658493873" as="geometry" />
        </mxCell>
        <mxCell id="GxkU5UI5qD7G4g8lQDoM-21" value="" style="ellipse;whiteSpace=wrap;html=1;fillColor=#666666;strokeColor=none;" parent="GxkU5UI5qD7G4g8lQDoM-36" vertex="1">
          <mxGeometry x="1.1299999999999948" width="6.359999999999996" height="7.770262697022771" as="geometry" />
        </mxCell>
        <mxCell id="nBPd2E6_pD8OVz0HcGxl-22" value="" style="verticalLabelPosition=bottom;verticalAlign=top;html=1;shape=mxgraph.basic.drop;strokeColor=none;fillColor=#FFFFFF;gradientColor=#FFB366;gradientDirection=radial;" parent="1" vertex="1">
          <mxGeometry x="122.59" y="-46" width="5.25" height="10.68" as="geometry" />
        </mxCell>
        <mxCell id="GxkU5UI5qD7G4g8lQDoM-57" value="Compression Test" style="text;html=1;align=center;verticalAlign=middle;resizable=0;points=[];autosize=1;strokeColor=none;fillColor=none;fontStyle=1;fontSize=13;fontFamily=Verdana;" parent="1" vertex="1">
          <mxGeometry x="368" y="-163" width="140" height="30" as="geometry" />
        </mxCell>
        <mxCell id="GxkU5UI5qD7G4g8lQDoM-61" value="" style="group" parent="1" vertex="1" connectable="0">
          <mxGeometry x="395.99" y="-133" width="82.23000000000002" height="77" as="geometry" />
        </mxCell>
        <mxCell id="GxkU5UI5qD7G4g8lQDoM-49" value="" style="shape=cube;whiteSpace=wrap;html=1;boundedLbl=1;backgroundOutline=1;darkOpacity=0.05;darkOpacity2=0.1;size=23;fillColor=#808080;strokeColor=none;" parent="GxkU5UI5qD7G4g8lQDoM-61" vertex="1">
          <mxGeometry y="45.78" width="82.23" height="31.22" as="geometry" />
        </mxCell>
        <mxCell id="GxkU5UI5qD7G4g8lQDoM-50" value="" style="shape=cube;whiteSpace=wrap;html=1;boundedLbl=1;backgroundOutline=1;darkOpacity=0.05;darkOpacity2=0.1;size=7;strokeColor=none;fillColor=#E6E6E6;" parent="GxkU5UI5qD7G4g8lQDoM-61" vertex="1">
          <mxGeometry x="23.879999999999995" y="51.98000000000002" width="36.69" height="7.74" as="geometry" />
        </mxCell>
        <mxCell id="GxkU5UI5qD7G4g8lQDoM-47" value="" style="shape=cylinder3;whiteSpace=wrap;html=1;boundedLbl=1;backgroundOutline=1;size=2.9459459459457378;fillColor=#999999;strokeColor=none;" parent="GxkU5UI5qD7G4g8lQDoM-61" vertex="1">
          <mxGeometry x="37.56999999999999" y="16.5" width="7.07" height="39.85" as="geometry" />
        </mxCell>
        <mxCell id="GxkU5UI5qD7G4g8lQDoM-46" value="" style="shape=cube;whiteSpace=wrap;html=1;boundedLbl=1;backgroundOutline=1;darkOpacity=0.05;darkOpacity2=0.1;size=10;fillColor=#4D4D4D;strokeColor=none;" parent="GxkU5UI5qD7G4g8lQDoM-61" vertex="1">
          <mxGeometry x="20" width="42.22" height="26.5" as="geometry" />
        </mxCell>
        <mxCell id="GxkU5UI5qD7G4g8lQDoM-62" value="NIPS Fabrication" style="text;html=1;align=center;verticalAlign=middle;resizable=0;points=[];autosize=1;strokeColor=none;fillColor=none;fontStyle=1;fontSize=13;fontFamily=Verdana;" parent="1" vertex="1">
          <mxGeometry x="208.00000000000003" y="-163" width="130" height="30" as="geometry" />
        </mxCell>
        <mxCell id="GxkU5UI5qD7G4g8lQDoM-64" value="Automated NIPS Fabrication and Characterization " style="text;align=center;verticalAlign=middle;resizable=0;points=[];autosize=1;strokeColor=none;fillColor=none;fontSize=16;fontStyle=1;fontFamily=Verdana;rounded=1;html=1;imageAspect=1;expand=1;" parent="1" vertex="1">
          <mxGeometry x="40.999999999999986" y="-196" width="430" height="30" as="geometry" />
        </mxCell>
        <mxCell id="GxkU5UI5qD7G4g8lQDoM-73" value="" style="shape=flexArrow;endArrow=classic;html=1;rounded=0;width=2.857142857142857;endSize=2.5228571428571427;endWidth=4.326530612244897;fillColor=light-dark(#f8cecc, #121212);strokeColor=none;gradientColor=light-dark(#F19C99,#FF9090);gradientDirection=south;" parent="1" edge="1">
          <mxGeometry width="50" height="50" relative="1" as="geometry">
            <mxPoint x="465" y="-110.16" as="sourcePoint" />
            <mxPoint x="465" y="-82.16" as="targetPoint" />
          </mxGeometry>
        </mxCell>
        <mxCell id="GxkU5UI5qD7G4g8lQDoM-76" value="" style="shape=flexArrow;endArrow=classic;html=1;rounded=0;exitX=1;exitY=0.5;exitDx=0;exitDy=0;entryX=0;entryY=0.5;entryDx=0;entryDy=0;width=4.672897196261682;endSize=2.332710280373832;endWidth=9.40693510350249;fillColor=#97D077;gradientColor=light-dark(#66B2FF,#EDEDED);strokeColor=none;gradientDirection=east;" parent="1" edge="1">
          <mxGeometry width="50" height="50" relative="1" as="geometry">
            <mxPoint x="178" y="-83.55" as="sourcePoint" />
            <mxPoint x="198" y="-83.55" as="targetPoint" />
          </mxGeometry>
        </mxCell>
        <mxCell id="GxkU5UI5qD7G4g8lQDoM-77" value="" style="shape=flexArrow;endArrow=classic;html=1;rounded=0;exitX=1;exitY=0.5;exitDx=0;exitDy=0;entryX=0;entryY=0.5;entryDx=0;entryDy=0;width=4.672897196261682;endSize=2.332710280373832;endWidth=9.40693510350249;fillColor=light-dark(#66B2FF,#EDEDED);strokeColor=none;gradientColor=#F8CECC;gradientDirection=east;" parent="1" source="GxkU5UI5qD7G4g8lQDoM-70" target="GxkU5UI5qD7G4g8lQDoM-71" edge="1">
          <mxGeometry width="50" height="50" relative="1" as="geometry">
            <mxPoint x="198" y="-83" as="sourcePoint" />
            <mxPoint x="218" y="-83" as="targetPoint" />
          </mxGeometry>
        </mxCell>
        <mxCell id="A6g-0nWt0Pe2CqupR9yY-31" style="edgeStyle=none;shape=connector;rounded=0;orthogonalLoop=1;jettySize=auto;html=1;entryX=0;entryY=0.5;entryDx=0;entryDy=0;strokeColor=default;align=center;verticalAlign=middle;fontFamily=Helvetica;fontSize=11;fontColor=default;labelBackgroundColor=default;endArrow=none;" parent="1" target="A6g-0nWt0Pe2CqupR9yY-27" edge="1">
          <mxGeometry relative="1" as="geometry">
            <mxPoint x="440" y="-30" as="sourcePoint" />
            <Array as="points">
              <mxPoint x="440" y="-20" />
            </Array>
          </mxGeometry>
        </mxCell>
        <mxCell id="oKkYbwIYP6irmb3DHjhX-2" value="&lt;b style=&quot;color: rgb(0, 0, 0); text-align: left;&quot;&gt;&lt;font&gt;Property Extraction&lt;/font&gt;&lt;/b&gt;" style="text;html=1;align=center;verticalAlign=middle;resizable=0;points=[];autosize=1;strokeColor=none;fillColor=none;fontStyle=1;fontSize=11;fontFamily=Verdana;" parent="1" vertex="1">
          <mxGeometry x="368" y="-60.00000000000001" width="140" height="30" as="geometry" />
        </mxCell>
        <mxCell id="GxkU5UI5qD7G4g8lQDoM-28" value="" style="group" parent="1" vertex="1" connectable="0">
          <mxGeometry x="23" y="-110" width="60" height="40" as="geometry" />
        </mxCell>
        <mxCell id="GxkU5UI5qD7G4g8lQDoM-24" value="" style="shape=cylinder3;whiteSpace=wrap;html=1;boundedLbl=1;backgroundOutline=1;size=5;strokeWidth=0.05;" parent="GxkU5UI5qD7G4g8lQDoM-28" vertex="1">
          <mxGeometry width="27.78" height="40.00000000000001" as="geometry" />
        </mxCell>
        <mxCell id="GxkU5UI5qD7G4g8lQDoM-25" value="" style="shape=cylinder3;whiteSpace=wrap;html=1;boundedLbl=1;backgroundOutline=1;size=5;fillColor=#FFB366;strokeWidth=0.05;" parent="GxkU5UI5qD7G4g8lQDoM-28" vertex="1">
          <mxGeometry y="12.639336711192998" width="27.777777777777775" height="27.360663288806997" as="geometry" />
        </mxCell>
        <mxCell id="GxkU5UI5qD7G4g8lQDoM-26" value="" style="shape=cylinder3;whiteSpace=wrap;html=1;boundedLbl=1;backgroundOutline=1;size=5;strokeWidth=0.05;" parent="GxkU5UI5qD7G4g8lQDoM-28" vertex="1">
          <mxGeometry x="32.222222222222214" width="27.777777777777775" height="40.00000000000001" as="geometry" />
        </mxCell>
        <mxCell id="GxkU5UI5qD7G4g8lQDoM-27" value="" style="shape=cylinder3;whiteSpace=wrap;html=1;boundedLbl=1;backgroundOutline=1;size=5;fillColor=#FFE6CC;strokeWidth=0.05;" parent="GxkU5UI5qD7G4g8lQDoM-28" vertex="1">
          <mxGeometry x="32.222222222222214" y="12.639336711192998" width="27.777777777777775" height="27.360663288806997" as="geometry" />
        </mxCell>
        <mxCell id="GxkU5UI5qD7G4g8lQDoM-69" value="Phase Inversion" style="text;html=1;align=center;verticalAlign=middle;resizable=0;points=[];autosize=1;strokeColor=none;fillColor=none;fontFamily=Verdana;fontSize=11;" parent="1" vertex="1">
          <mxGeometry x="219.57" y="-77.55" width="110" height="30" as="geometry" />
        </mxCell>
        <mxCell id="A6g-0nWt0Pe2CqupR9yY-16" style="rounded=0;orthogonalLoop=1;jettySize=auto;html=1;strokeColor=#82b366;align=center;verticalAlign=middle;fontFamily=Helvetica;fontSize=11;fontColor=default;labelBackgroundColor=default;endArrow=open;endFill=0;curved=1;fillColor=#d5e8d4;opacity=70;" parent="1" source="GxkU5UI5qD7G4g8lQDoM-29" target="GxkU5UI5qD7G4g8lQDoM-30" edge="1">
          <mxGeometry relative="1" as="geometry">
            <Array as="points">
              <mxPoint x="120" y="-120" />
            </Array>
          </mxGeometry>
        </mxCell>
        <mxCell id="A6g-0nWt0Pe2CqupR9yY-17" style="rounded=0;orthogonalLoop=1;jettySize=auto;html=1;strokeColor=light-dark(#3399FF,#EDEDED);align=center;verticalAlign=middle;fontFamily=Helvetica;fontSize=11;fontColor=default;labelBackgroundColor=default;endArrow=open;endFill=0;curved=1;fillColor=#d5e8d4;opacity=70;" parent="1" edge="1">
          <mxGeometry relative="1" as="geometry">
            <mxPoint x="209.57" y="-77.55" as="sourcePoint" />
            <mxPoint x="224.57" y="-63.55" as="targetPoint" />
            <Array as="points">
              <mxPoint x="210" y="-69.22" />
            </Array>
          </mxGeometry>
        </mxCell>
        <mxCell id="A6g-0nWt0Pe2CqupR9yY-28" style="edgeStyle=none;shape=connector;rounded=0;orthogonalLoop=1;jettySize=auto;html=1;strokeColor=default;align=center;verticalAlign=middle;fontFamily=Helvetica;fontSize=11;fontColor=default;labelBackgroundColor=default;endArrow=none;entryX=1;entryY=0.5;entryDx=0;entryDy=0;exitX=0.514;exitY=1;exitDx=0;exitDy=0;exitPerimeter=0;" parent="1" source="oKkYbwIYP6irmb3DHjhX-2" target="A6g-0nWt0Pe2CqupR9yY-18" edge="1">
          <mxGeometry relative="1" as="geometry">
            <mxPoint x="440" y="-30" as="sourcePoint" />
            <Array as="points">
              <mxPoint x="440" y="-20" />
            </Array>
          </mxGeometry>
        </mxCell>
        <mxCell id="A6g-0nWt0Pe2CqupR9yY-18" value="&lt;span style=&quot;background-color: transparent; color: light-dark(rgb(0, 0, 0), rgb(255, 255, 255));&quot;&gt;Elastic Modulus&amp;nbsp;&lt;/span&gt;" style="html=1;whiteSpace=wrap;container=1;recursiveResize=0;collapsible=0;strokeColor=none;fillColor=#f8cecc;align=center;rounded=1;fontSize=10;arcSize=34;" parent="1" vertex="1">
          <mxGeometry x="380" y="-32.5" width="50" height="25.21" as="geometry" />
        </mxCell>
        <mxCell id="A6g-0nWt0Pe2CqupR9yY-27" value="&lt;span&gt;Pore Fraction&lt;/span&gt;" style="html=1;whiteSpace=wrap;container=1;recursiveResize=0;collapsible=0;strokeColor=none;fillColor=#f8cecc;align=center;rounded=1;fontSize=10;arcSize=28;" parent="1" vertex="1">
          <mxGeometry x="450" y="-32.5" width="51" height="25.21" as="geometry" />
        </mxCell>
        <mxCell id="A6g-0nWt0Pe2CqupR9yY-39" value="Polymer" style="text;html=1;align=center;verticalAlign=middle;resizable=0;points=[];autosize=1;strokeColor=none;fillColor=none;fontFamily=Verdana;fontSize=9;" parent="1" vertex="1">
          <mxGeometry x="3.13" y="-56.000000000000014" width="60" height="20" as="geometry" />
        </mxCell>
        <mxCell id="A6g-0nWt0Pe2CqupR9yY-41" value="Solvent" style="text;html=1;align=center;verticalAlign=middle;resizable=0;points=[];autosize=1;strokeColor=none;fillColor=none;fontFamily=Verdana;fontSize=9;" parent="1" vertex="1">
          <mxGeometry x="43" y="-56.00000000000002" width="60" height="20" as="geometry" />
        </mxCell>
        <mxCell id="A6g-0nWt0Pe2CqupR9yY-43" value="" style="shape=image;verticalLabelPosition=bottom;labelBackgroundColor=default;verticalAlign=top;aspect=fixed;imageAspect=0;editableCssRules=.*;image=data:image/svg+xml,PHN2ZyB4bWxuczp4bGluaz0iaHR0cDovL3d3dy53My5vcmcvMTk5OS94bGluayIgeG1sbnM9Imh0dHA6Ly93d3cudzMub3JnLzIwMDAvc3ZnIiBvdmVyZmxvdz0iaGlkZGVuIiBpZD0iSWNvbnNfQ2hlbWljYWxzIiB2aWV3Qm94PSIxNS41MzYwMDAyNTE3NzAwMiA3LjUgNjMuMjMzOTk3MzQ0OTcwNyA4MiIgd2lkdGg9IjYzLjIzMzk5NzM0NDk3MDciIGhlaWdodD0iODIiPjxnIGlkPSJJY29ucyI+PHBhdGggZD0iTTcwLjY4NyA0OSA3OC43NyAzNSA2OC45NTUgMTggNTIuNzMyIDE4IDQ2LjY3IDcuNSA0MS40NzUgMTAuNSA0Ny41NjUgMjEuMDQ5IDQxLjI0MyAzMiAyOS4wODIgMzIgMjMuMDIxIDIxLjUgMTcuODIxIDI0LjUgMjMuNzQ5IDM0Ljc2OCAxNS41MzYgNDkgMjUuMzUxIDY2IDQxLjI0MyA2NiA0OS4zMjUgODAgNjUuOTE4IDgwIDcxLjQgODkuNSA3Ni42IDg2LjUgNzAuOSA3Ni42MzEgNzguNzcgNjNaTTcxLjg0MiAzNSA2NS40OSA0NiA1My4wNjQgNDYgNDYuNTc2IDM0Ljc2MiA1Mi43OSAyNCA2NS40OSAyNFpNMjIuNDY0IDQ5IDI4LjgxNSAzOCA0MS4yNDMgMzggNDcuNTkzIDQ5IDQxLjI0MyA2MCAyOC44MTUgNjBaTTQ2LjU3NiA2My4yMzggNTMuMDY0IDUyIDY1LjQ5IDUyIDcxLjg0MiA2MyA2NS40OSA3NCA1Mi43OSA3NFoiLz48L2c+PC9zdmc+;" parent="1" vertex="1">
          <mxGeometry x="23.14" y="-37.79" width="19.98" height="26" as="geometry" />
        </mxCell>
        <mxCell id="A6g-0nWt0Pe2CqupR9yY-44" value="" style="shape=image;verticalLabelPosition=bottom;labelBackgroundColor=default;verticalAlign=top;aspect=fixed;imageAspect=0;editableCssRules=.*;image=data:image/svg+xml,PHN2ZyB4bWxuczp4bGluaz0iaHR0cDovL3d3dy53My5vcmcvMTk5OS94bGluayIgeG1sbnM9Imh0dHA6Ly93d3cudzMub3JnLzIwMDAvc3ZnIiBvdmVyZmxvdz0iaGlkZGVuIiBpZD0iSWNvbnNfUG90aW9uIiB2aWV3Qm94PSIxOS4wMDQzNTQ0NzY5Mjg3MSA0IDU4LjE3NTU3NTI1NjM0NzY1NiA4OCIgd2lkdGg9IjU4LjE3NTU3NTI1NjM0NzY1NiIgaGVpZ2h0PSI4OCI+PHBhdGggZD0iTTc3LjAyNyA0Ni4zODZDNzYuODI0OSA0NS44OTQ3IDc2LjQzNTYgNDUuNTAzOSA3NS45NDUgNDUuM0w1OC4wMDUgMzcuODY5IDU4LjAwNSAyMi44NThDNjAuMTQwMSAyMi4zMDg1IDYxLjQyNTUgMjAuMTMyMSA2MC44NzYgMTcuOTk3IDYwLjQyMTUgMTYuMjMxMiA1OC44MjgzIDE0Ljk5NzcgNTcuMDA1IDE1TDU1LjAwNSAxNSA1NS4wMDUgNyA0OC4wNTcgNCA0MS4wMDUgNyA0MS4wMDUgMTUgMzkuMDA1IDE1QzM2Ljc5NTkgMTUuMDAyNiAzNS4wMDcxIDE2Ljc5NTYgMzUuMDA5NyAxOS4wMDQ3IDM1LjAxMTkgMjAuODkyMyAzNi4zMzM0IDIyLjUyMTUgMzguMTggMjIuOTEzTDM4LjE4IDM3Ljg3MyAyMC4yNCA0NS4zQzE5LjIxOTQgNDUuNzIyNCAxOC43MzQ1IDQ2Ljg5MjMgMTkuMTU2OSA0Ny45MTI4IDE5LjE1NyA0Ny45MTI5IDE5LjE1NyA0Ny45MTI5IDE5LjE1NyA0Ny45MTNMMzYuOTA2IDkwLjc2NkMzNy4yMTU3IDkxLjUxMjggMzcuOTQ0NSA5MS45OTk4IDM4Ljc1MyA5Mkw1Ny40MzEgOTJDNTguMjM5OSA5Mi4wMDAyIDU4Ljk2OTIgOTEuNTEzMiA1OS4yNzkgOTAuNzY2TDc3LjAyNyA0Ny45MTdDNzcuMjMwOSA0Ny40MjcgNzcuMjMwOSA0Ni44NzYgNzcuMDI3IDQ2LjM4NlpNNjguMzIgNTguNDg2QzY1LjA3OSA1Ni4zNDkgNjAuNjU3IDU0IDU2LjMgNTQgNTAuNjA5IDU0IDQ3LjEzMSA1NS43NTEgNDMuNTQ3IDU3LjUgMzkuMTI1NiA1OS45MjMyIDM0LjIzMDIgNjEuMzU2MyAyOS4yIDYxLjdMMjMuNjE4IDQ4LjIzMyA0MC45NDUgNDEuMDU3QzQxLjY5MjYgNDAuNzQ3NSA0Mi4xOCA0MC4wMTgxIDQyLjE4IDM5LjIwOUw0Mi4xOCAyMyA1NC4wMDUgMjMgNTQuMDA1IDM5LjIwOUM1NC4wMDUgNDAuMDE4MSA1NC40OTI0IDQwLjc0NzUgNTUuMjQgNDEuMDU3TDcyLjU2NiA0OC4yMzNaIi8+PHBhdGggZD0iTTQ5IDQwQzQ3LjM0MzEgNDAgNDYgNDEuMzQzMSA0NiA0MyA0NiA0NC42NTY5IDQ3LjM0MzEgNDYgNDkgNDYgNTAuNjU2OSA0NiA1MiA0NC42NTY5IDUyIDQzIDUyIDQxLjM0MzEgNTAuNjU2OSA0MCA0OSA0MFoiLz48Y2lyY2xlIHI9IjMuNSIgY3k9IjUxLjUiIGN4PSIzNy41MDYiLz48L3N2Zz4=;" parent="1" vertex="1">
          <mxGeometry x="64" y="-39.1" width="18.87" height="28.63" as="geometry" />
        </mxCell>
        <mxCell id="A6g-0nWt0Pe2CqupR9yY-46" style="rounded=0;orthogonalLoop=1;jettySize=auto;html=1;strokeColor=#82b366;align=center;verticalAlign=middle;fontFamily=Helvetica;fontSize=11;fontColor=default;labelBackgroundColor=default;endArrow=open;endFill=0;curved=1;fillColor=#d5e8d4;opacity=70;" parent="1" edge="1">
          <mxGeometry relative="1" as="geometry">
            <mxPoint x="31" y="-53" as="sourcePoint" />
            <mxPoint x="45" y="-65" as="targetPoint" />
            <Array as="points">
              <mxPoint x="37" y="-61.55" />
            </Array>
          </mxGeometry>
        </mxCell>
        <mxCell id="A6g-0nWt0Pe2CqupR9yY-47" style="rounded=0;orthogonalLoop=1;jettySize=auto;html=1;strokeColor=#82b366;align=center;verticalAlign=middle;fontFamily=Helvetica;fontSize=11;fontColor=default;labelBackgroundColor=default;endArrow=open;endFill=0;curved=1;fillColor=#d5e8d4;opacity=70;" parent="1" edge="1">
          <mxGeometry relative="1" as="geometry">
            <mxPoint x="77" y="-53" as="sourcePoint" />
            <mxPoint x="63" y="-65" as="targetPoint" />
            <Array as="points">
              <mxPoint x="74" y="-61" />
            </Array>
          </mxGeometry>
        </mxCell>
        <mxCell id="GxkU5UI5qD7G4g8lQDoM-67" value="" style="shape=cube;whiteSpace=wrap;html=1;boundedLbl=1;backgroundOutline=1;darkOpacity=0.05;darkOpacity2=0.1;size=11;gradientColor=none;strokeColor=none;fillColor=#CCCCCC;shadow=1;" parent="1" vertex="1">
          <mxGeometry x="251.04999999999998" y="-31.950000000000003" width="50" height="12.93" as="geometry" />
        </mxCell>
        <mxCell id="GxkU5UI5qD7G4g8lQDoM-68" value="" style="shape=cube;whiteSpace=wrap;html=1;boundedLbl=1;backgroundOutline=1;darkOpacity=0.05;darkOpacity2=0.1;size=5;strokeColor=none;fillColor=light-dark(#E6E6E6,#EDEDED);" parent="1" vertex="1">
          <mxGeometry x="261.6600000000001" y="-29.450000000000003" width="29" height="5.93" as="geometry" />
        </mxCell>
        <mxCell id="A6g-0nWt0Pe2CqupR9yY-49" value="" style="shape=cube;whiteSpace=wrap;html=1;boundedLbl=1;backgroundOutline=1;darkOpacity=0.05;darkOpacity2=0.1;size=20;fillColor=none;strokeWidth=0.1;opacity=50;strokeColor=default;gradientColor=#FFFFFF;" parent="1" vertex="1">
          <mxGeometry x="235.66" y="-52.019999999999996" width="77.82" height="41.55" as="geometry" />
        </mxCell>
        <mxCell id="A6g-0nWt0Pe2CqupR9yY-50" value="" style="shape=cube;whiteSpace=wrap;html=1;boundedLbl=1;backgroundOutline=1;darkOpacity=0.05;darkOpacity2=0.1;size=20;strokeColor=none;fillColor=#CCE5FF;opacity=10;gradientColor=#3399FF;" parent="1" vertex="1">
          <mxGeometry x="235.66" y="-43.47" width="77.82" height="33" as="geometry" />
        </mxCell>
      </root>
    </mxGraphModel>
  </diagram>
</mxfile>
